<?xml version="1.0" encoding="UTF-8"?>
<svg id="Layer_1" data-name="Layer 1" xmlns="http://www.w3.org/2000/svg" viewBox="0 0 183.17 430.46">
  <defs>
    <style>
      .cls-1 {
        fill: #231f20;
        stroke: #231f20;
        stroke-miterlimit: 10;
        stroke-width: .75px;
      }
    </style>
  </defs>
  <g>
    <path class="cls-1" d="m43.42,367.49v6.32c-1.17-.08-2.76-.3-4.23-.56,3.53,2.81,4.85,6.27,4.85,11.73,0,9.69-7.11,13.94-16.37,13.94-12.8,0-27.29-7.31-27.29-22.72,0-9.58,5.33-14.94,13.36-14.95v8.21c-2.46.15-6.65,1.08-6.65,7.43,0,9.49,11.41,13.36,20.03,13.36,6.46,0,10.32-2.61,10.32-7.9,0-6.68-5.02-8.92-10.6-10.04l-.2-.06v8.84l-6.94-1.6v-16.99c17.44,3.77,22.17,4.74,23.72,4.99Z"/>
    <path class="cls-1" d="m25.69,349.09l17.73,3.73v8.22L.94,352.04v-14.74c0-8.28,4.6-12.82,10.57-12.82s9.58,3.22,11.32,7.92c1.82-3.19,5.57-3.92,11.16-2.77,3.76.81,7.05,1.28,9.44,1.43v8.28c-1.84,0-4.52-.35-9.74-1.49-4.76-1-7.99-.87-7.99,5.26v5.98Zm-6.65-1.44v-6.38c0-5.07-1.92-8.17-6.47-8.17-3.76,0-4.98,2.82-4.98,5.87v6.29l11.45,2.4Z"/>
    <path class="cls-1" d="m33.09,313.63l10.33,5.13v8.67c-13.17-6.67-26.3-13.29-42.48-21.61v-10.85l42.48-4.22v8.33l-10.33,1.05v13.5Zm-6.92-13.35c-8.61.67-14.86,1.35-18.76,1.4v.07c4.69,2.03,11.47,5.16,18.76,8.87v-10.34Z"/>
    <path class="cls-1" d="m43.42,287.64L.94,278.64v-10.51s31.24-8.3,31.24-8.3v-.12c-5.05-.66-11.07-1.97-18.02-3.46l-13.23-2.79v-7.68l42.48,9v10.07s-32.82,8.43-32.82,8.43v.07c5.27.81,12,2.2,19.59,3.82l13.23,2.8v7.67Z"/>
    <path class="cls-1" d="m7.86,232.51v11.14l-6.92-1.49v-30.78l6.92,1.49v11.15l35.56,7.51v8.49l-35.56-7.51Z"/>
    <path class="cls-1" d="m.94,184.02l42.48,9v8.38L.94,192.4v-8.38Z"/>
    <path class="cls-1" d="m30.94,177.44c4.32-.51,6.76-2.9,6.76-7.51,0-3.83-1.84-6.62-5.81-6.62-3.33,0-4.93,1.54-7.23,6.64-3.57,8.02-6.41,10.94-11.92,10.94-6.88,0-12.37-5.03-12.37-14.27,0-9.83,5.59-14.45,12.45-14.37v8.15c-3.54.29-6.08,2-6.08,6.59,0,3.78,2,5.46,4.83,5.46s3.96-1.81,6.06-6.61c3.94-9.02,7.65-11.31,12.75-11.31,7.84,0,13.63,5.37,13.63,16.14s-5.61,14.74-13.07,14.98v-8.21Z"/>
    <path class="cls-1" d="m30.94,129.7c4.32-.51,6.76-2.9,6.76-7.51,0-3.83-1.84-6.62-5.81-6.62-3.33,0-4.93,1.54-7.23,6.64-3.57,8.02-6.41,10.94-11.92,10.94-6.88,0-12.37-5.03-12.37-14.27,0-9.83,5.59-14.45,12.45-14.37v8.15c-3.54.29-6.08,2-6.08,6.59,0,3.78,2,5.46,4.83,5.46s3.96-1.81,6.06-6.61c3.94-9.02,7.65-11.31,12.75-11.31,7.84,0,13.63,5.37,13.63,16.14s-5.61,14.74-13.07,14.97v-8.21Z"/>
    <path class="cls-1" d="m.94,94.81v-8.38l35.61,7.57v-18.4l6.87,2.32v25.89L.94,94.81Z"/>
    <path class="cls-1" d="m33.09,61.04l10.33,5.13v8.67c-13.17-6.67-26.3-13.29-42.48-21.61v-10.85l42.48-4.22v8.33l-10.33,1.05v13.5Zm-6.92-13.35c-8.61.67-14.86,1.35-18.76,1.4v.07c4.69,2.03,11.47,5.16,18.76,8.87v-10.34Z"/>
    <path class="cls-1" d="m43.42,31.56l-16.34-3.5c-.48-.06-.92-.11-1.38.06L.94,35.98v-8.78c5.93-1.54,14.45-3.84,18.41-4.83C15.42,19.72,6.58,13.75.94,9.77V.74l25.28,18.48c.35.29.66.47,1.3.59l15.89,3.39v8.36Z"/>
  </g>
  <g>
    <path class="cls-1" d="m88.57,378.73v6.32c-1.17-.08-2.76-.3-4.23-.56,3.53,2.81,4.85,6.27,4.85,11.73,0,9.69-7.11,13.94-16.37,13.94-12.8,0-27.29-7.31-27.29-22.72,0-9.58,5.33-14.94,13.36-14.95v8.21c-2.46.15-6.65,1.08-6.65,7.43,0,9.49,11.41,13.36,20.03,13.36,6.46,0,10.32-2.61,10.32-7.9,0-6.68-5.02-8.92-10.6-10.04l-.2-.06v8.84l-6.94-1.6v-16.99c17.44,3.77,22.17,4.74,23.72,4.99Z"/>
    <path class="cls-1" d="m70.84,360.33l17.73,3.73v8.22l-42.48-9v-14.74c0-8.28,4.6-12.82,10.57-12.82s9.58,3.22,11.32,7.92c1.82-3.19,5.57-3.92,11.16-2.77,3.76.81,7.05,1.28,9.44,1.43v8.28c-1.84,0-4.52-.35-9.74-1.49-4.76-1-7.99-.87-7.99,5.26v5.98Zm-6.65-1.44v-6.38c0-5.07-1.92-8.17-6.47-8.17-3.76,0-4.98,2.82-4.98,5.87v6.29l11.45,2.4Z"/>
    <path class="cls-1" d="m78.24,324.86l10.33,5.13v8.67c-13.17-6.67-26.3-13.29-42.48-21.61v-10.85l42.48-4.22v8.33l-10.33,1.05v13.5Zm-6.92-13.35c-8.61.67-14.86,1.35-18.76,1.4v.07c4.69,2.03,11.47,5.16,18.76,8.87v-10.34Z"/>
    <path class="cls-1" d="m88.57,298.88l-42.48-9v-10.51s31.24-8.3,31.24-8.3v-.12c-5.05-.66-11.07-1.97-18.02-3.46l-13.23-2.79v-7.68l42.48,9v10.07s-32.82,8.43-32.82,8.43v.07c5.27.81,12,2.2,19.59,3.82l13.23,2.8v7.67Z"/>
    <path class="cls-1" d="m53.02,243.74v11.14l-6.92-1.49v-30.78l6.92,1.49v11.15l35.56,7.51v8.49l-35.56-7.51Z"/>
    <path class="cls-1" d="m46.09,195.25l42.48,9v8.38l-42.48-9v-8.38Z"/>
    <path class="cls-1" d="m76.1,188.68c4.32-.51,6.76-2.9,6.76-7.51,0-3.83-1.84-6.62-5.81-6.62-3.33,0-4.93,1.54-7.23,6.64-3.57,8.02-6.41,10.94-11.92,10.94-6.88,0-12.37-5.03-12.37-14.27,0-9.83,5.59-14.45,12.45-14.37v8.15c-3.54.29-6.08,2-6.08,6.59,0,3.78,2,5.46,4.83,5.46s3.96-1.81,6.06-6.61c3.94-9.02,7.65-11.31,12.75-11.31,7.84,0,13.63,5.37,13.63,16.14s-5.61,14.74-13.07,14.97v-8.21Z"/>
    <path class="cls-1" d="m76.1,140.94c4.32-.51,6.76-2.9,6.76-7.51,0-3.83-1.84-6.62-5.81-6.62-3.33,0-4.93,1.54-7.23,6.64-3.57,8.02-6.41,10.94-11.92,10.94-6.88,0-12.37-5.03-12.37-14.27,0-9.83,5.59-14.45,12.45-14.37v8.15c-3.54.29-6.08,2-6.08,6.59,0,3.78,2,5.46,4.83,5.46s3.96-1.81,6.06-6.61c3.94-9.02,7.65-11.31,12.75-11.31,7.84,0,13.63,5.37,13.63,16.14s-5.61,14.74-13.07,14.97v-8.21Z"/>
    <path class="cls-1" d="m46.09,106.05v-8.38l35.61,7.57v-18.4l6.87,2.32v25.89l-42.48-9Z"/>
    <path class="cls-1" d="m78.24,72.28l10.33,5.13v8.67c-13.17-6.67-26.3-13.29-42.48-21.61v-10.85l42.48-4.22v8.33l-10.33,1.05v13.5Zm-6.92-13.35c-8.61.67-14.86,1.35-18.76,1.4v.07c4.69,2.03,11.47,5.16,18.76,8.87v-10.34Z"/>
    <path class="cls-1" d="m88.57,42.8l-16.34-3.5c-.48-.06-.92-.11-1.38.06l-24.75,7.86v-8.78c5.93-1.54,14.45-3.84,18.41-4.83-3.92-2.65-12.77-8.62-18.41-12.6v-9.03l25.28,18.48c.35.29.66.47,1.3.59l15.89,3.39v8.36Z"/>
  </g>
  <g>
    <path class="cls-1" d="m136.4,389.02v6.32c-1.17-.08-2.76-.3-4.23-.56,3.53,2.81,4.85,6.27,4.85,11.73,0,9.69-7.11,13.94-16.37,13.94-12.8,0-27.29-7.31-27.29-22.72,0-9.58,5.33-14.94,13.36-14.95v8.21c-2.46.15-6.65,1.08-6.65,7.43,0,9.49,11.41,13.36,20.03,13.36,6.46,0,10.32-2.61,10.32-7.9,0-6.68-5.02-8.92-10.6-10.04l-.2-.06v8.84l-6.94-1.6v-16.99c17.44,3.77,22.17,4.74,23.72,4.99Z"/>
    <path class="cls-1" d="m118.67,370.62l17.73,3.73v8.22l-42.48-9v-14.74c0-8.28,4.6-12.82,10.57-12.82s9.58,3.22,11.32,7.92c1.82-3.19,5.57-3.92,11.16-2.77,3.76.81,7.05,1.28,9.44,1.43v8.28c-1.84,0-4.52-.35-9.74-1.49-4.76-1-7.99-.87-7.99,5.26v5.98Zm-6.65-1.44v-6.38c0-5.07-1.92-8.17-6.47-8.17-3.76,0-4.98,2.82-4.98,5.87v6.29l11.45,2.4Z"/>
    <path class="cls-1" d="m126.07,335.15l10.33,5.13v8.67c-13.17-6.67-26.3-13.29-42.48-21.61v-10.85l42.48-4.22v8.33l-10.33,1.05v13.5Zm-6.92-13.35c-8.61.67-14.86,1.35-18.76,1.4v.07c4.69,2.03,11.47,5.16,18.76,8.87v-10.34Z"/>
    <path class="cls-1" d="m136.4,309.17l-42.48-9v-10.51s31.24-8.3,31.24-8.3v-.12c-5.05-.66-11.07-1.97-18.02-3.46l-13.23-2.79v-7.68l42.48,9v10.07s-32.82,8.43-32.82,8.43v.07c5.27.81,12,2.2,19.59,3.82l13.23,2.8v7.67Z"/>
    <path class="cls-1" d="m100.84,254.03v11.14l-6.92-1.49v-30.78l6.92,1.49v11.15l35.56,7.51v8.49l-35.56-7.51Z"/>
    <path class="cls-1" d="m93.92,205.54l42.48,9v8.38l-42.48-9v-8.38Z"/>
    <path class="cls-1" d="m123.92,198.97c4.32-.51,6.76-2.9,6.76-7.51,0-3.83-1.84-6.62-5.81-6.62-3.33,0-4.93,1.54-7.23,6.64-3.57,8.02-6.41,10.94-11.92,10.94-6.88,0-12.37-5.03-12.37-14.27,0-9.83,5.59-14.45,12.45-14.37v8.15c-3.54.29-6.08,2-6.08,6.59,0,3.78,2,5.46,4.83,5.46s3.96-1.81,6.06-6.61c3.94-9.02,7.65-11.31,12.75-11.31,7.84,0,13.63,5.37,13.63,16.14s-5.61,14.74-13.07,14.97v-8.21Z"/>
    <path class="cls-1" d="m123.92,151.23c4.32-.51,6.76-2.9,6.76-7.51,0-3.83-1.84-6.62-5.81-6.62-3.33,0-4.93,1.54-7.23,6.64-3.57,8.02-6.41,10.94-11.92,10.94-6.88,0-12.37-5.03-12.37-14.27,0-9.83,5.59-14.45,12.45-14.37v8.15c-3.54.29-6.08,2-6.08,6.59,0,3.78,2,5.46,4.83,5.46s3.96-1.81,6.06-6.61c3.94-9.02,7.65-11.31,12.75-11.31,7.84,0,13.63,5.37,13.63,16.14s-5.61,14.74-13.07,14.97v-8.21Z"/>
    <path class="cls-1" d="m93.92,116.34v-8.38l35.61,7.57v-18.4l6.87,2.32v25.89l-42.48-9Z"/>
    <path class="cls-1" d="m126.07,82.57l10.33,5.13v8.67c-13.17-6.67-26.3-13.29-42.48-21.61v-10.85l42.48-4.22v8.33l-10.33,1.05v13.5Zm-6.92-13.35c-8.61.67-14.86,1.35-18.76,1.4v.07c4.69,2.03,11.47,5.16,18.76,8.87v-10.34Z"/>
    <path class="cls-1" d="m136.4,53.09l-16.34-3.5c-.48-.06-.92-.11-1.38.06l-24.75,7.86v-8.78c5.93-1.54,14.45-3.84,18.41-4.83-3.92-2.65-12.77-8.62-18.41-12.6v-9.03l25.28,18.48c.35.29.66.47,1.3.59l15.89,3.39v8.36Z"/>
  </g>
  <g>
    <path class="cls-1" d="m182.17,398.65v6.32c-1.17-.08-2.76-.3-4.23-.56,3.53,2.81,4.85,6.27,4.85,11.73,0,9.69-7.11,13.94-16.37,13.94-12.8,0-27.29-7.31-27.29-22.72,0-9.58,5.33-14.94,13.36-14.95v8.21c-2.46.15-6.65,1.08-6.65,7.43,0,9.49,11.41,13.36,20.03,13.36,6.46,0,10.32-2.61,10.32-7.9,0-6.68-5.02-8.92-10.6-10.04l-.2-.06v8.84l-6.94-1.6v-16.99c17.44,3.77,22.17,4.74,23.72,4.99Z"/>
    <path class="cls-1" d="m164.44,380.25l17.73,3.73v8.22l-42.48-9v-14.74c0-8.28,4.6-12.82,10.57-12.82s9.58,3.22,11.32,7.92c1.82-3.19,5.57-3.92,11.16-2.77,3.76.81,7.05,1.28,9.44,1.43v8.28c-1.84,0-4.52-.35-9.74-1.49-4.76-1-7.99-.87-7.99,5.26v5.98Zm-6.65-1.44v-6.38c0-5.07-1.92-8.17-6.47-8.17-3.76,0-4.98,2.82-4.98,5.87v6.29l11.45,2.4Z"/>
    <path class="cls-1" d="m171.84,344.78l10.33,5.13v8.67c-13.17-6.67-26.3-13.29-42.48-21.61v-10.85l42.48-4.22v8.33l-10.33,1.05v13.5Zm-6.92-13.35c-8.61.67-14.86,1.35-18.76,1.4v.07c4.69,2.03,11.47,5.16,18.76,8.87v-10.34Z"/>
    <path class="cls-1" d="m182.17,318.8l-42.48-9v-10.51s31.24-8.3,31.24-8.3v-.12c-5.05-.66-11.07-1.97-18.02-3.46l-13.23-2.79v-7.68l42.48,9v10.07s-32.82,8.43-32.82,8.43v.07c5.27.81,12,2.2,19.59,3.82l13.23,2.8v7.67Z"/>
    <path class="cls-1" d="m146.61,263.67v11.14l-6.92-1.49v-30.78l6.92,1.49v11.15l35.56,7.51v8.49l-35.56-7.51Z"/>
    <path class="cls-1" d="m139.69,215.18l42.48,9v8.38l-42.48-9v-8.38Z"/>
    <path class="cls-1" d="m169.69,208.6c4.32-.51,6.76-2.9,6.76-7.51,0-3.83-1.84-6.62-5.81-6.62-3.33,0-4.93,1.54-7.23,6.64-3.57,8.02-6.41,10.94-11.92,10.94-6.88,0-12.37-5.03-12.37-14.27,0-9.83,5.59-14.45,12.45-14.37v8.15c-3.54.29-6.08,2-6.08,6.59,0,3.78,2,5.46,4.83,5.46s3.96-1.81,6.06-6.61c3.94-9.02,7.65-11.31,12.75-11.31,7.84,0,13.63,5.37,13.63,16.14s-5.61,14.74-13.07,14.97v-8.21Z"/>
    <path class="cls-1" d="m169.69,160.86c4.32-.51,6.76-2.9,6.76-7.51,0-3.83-1.84-6.62-5.81-6.62-3.33,0-4.93,1.54-7.23,6.64-3.57,8.02-6.41,10.94-11.92,10.94-6.88,0-12.37-5.03-12.37-14.27,0-9.83,5.59-14.45,12.45-14.37v8.15c-3.54.29-6.08,2-6.08,6.59,0,3.78,2,5.46,4.83,5.46s3.96-1.81,6.06-6.61c3.94-9.02,7.65-11.31,12.75-11.31,7.84,0,13.63,5.37,13.63,16.14s-5.61,14.74-13.07,14.97v-8.21Z"/>
    <path class="cls-1" d="m139.69,125.97v-8.38l35.61,7.57v-18.4l6.87,2.32v25.89l-42.48-9Z"/>
    <path class="cls-1" d="m171.84,92.2l10.33,5.13v8.67c-13.17-6.67-26.3-13.29-42.48-21.61v-10.85l42.48-4.22v8.33l-10.33,1.05v13.5Zm-6.92-13.35c-8.61.67-14.86,1.35-18.76,1.4v.07c4.69,2.03,11.47,5.16,18.76,8.87v-10.34Z"/>
    <path class="cls-1" d="m182.17,62.72l-16.34-3.5c-.48-.06-.92-.11-1.38.06l-24.75,7.86v-8.78c5.93-1.54,14.45-3.84,18.41-4.83-3.92-2.65-12.77-8.62-18.41-12.6v-9.03l25.28,18.48c.35.29.66.47,1.3.59l15.89,3.39v8.36Z"/>
  </g>
</svg>