<?xml version="1.0" encoding="UTF-8"?>
<svg id="Layer_1" data-name="Layer 1" xmlns="http://www.w3.org/2000/svg" viewBox="0 0 44.95 421.99">
  <defs>
    <style>
      .cls-1 {
        fill: #231f20;
        stroke-width: 0px;
      }
    </style>
  </defs>
  <path class="cls-1" d="m29.31,399.72c0-1.76-1.31-3.07-3.12-3.07-4.17,0-.1,5.28-4.73,5.28-3.67,0-3.92-7.59-3.92-10.16,0-9.45,2.67-10,4.12-10,1.31,0,2.21,1.11,2.41,2.31.15,1.31.4,1.41,1.71,1.76,7.34,1.96,10.86,9.05,10.86,16.19,0,10.66-7.39,19.96-18.5,19.96S0,412.99,0,402.23c0-4.42,1.36-6.84,1.36-8.15,0-.9-.75-2.21-.75-3.12,0-3.12,5.13-4.98,7.69-4.98s4.98,1.26,4.98,3.97c0,4.98-6.99,4.98-6.99,11.82,0,4.37,3.62,7.19,8.95,7.19,10.36,0,14.08-6.03,14.08-9.25Z"/>
  <path class="cls-1" d="m20.71,377.34c-4.93,0-2.16,3.12-5.23,3.12-3.97,0-5.08-11.76-5.08-12.22,0-1.91.5-1.96,2.21-2.16.6-.05,1.76,0,1.76-.85,0-1.21-3.97-1.96-3.97-6.28,0-3.37,2.51-5.58,5.83-5.58s6.03,2.87,6.03,6.18-2.87,4.17-2.87,5.48c0,1.41,3.37,1.16,4.27,1.16,1.51,0,3.62-.15,5.53-.4,2.21-.3.85-4.12,3.87-4.12,3.17,0,3.42,4.42,3.42,9.96,0,2.31.1,9.15-3.37,9.15-2.11,0-2.11-2.31-3.87-2.87-1.26-.4-4.12-.55-5.53-.55h-3.02Z"/>
  <path class="cls-1" d="m23.93,326.76c8.85,0,4.02-3.02,6.74-3.02,2.87,0,5.98,3.92,5.98,7.59,0,3.97-2.56,4.07-2.56,5.33,0,.6.65,1.26,1.26,2.36.65,1.11,1.31,2.62,1.31,4.93,0,4.17-2.21,8.35-7.19,8.35-3.57,0-7.99-3.42-7.99-12.27,0-1.56.1-2.26-1.71-2.26-1.66,0-5.13.05-5.13,2.36,0,3.02,5.43,3.32,5.43,7.79,0,1.61-1.16,2.82-2.77,2.82-4.27,0-7.04-8.5-7.04-13.27,0-2.87,1.11-10.71,8.65-10.71h5.03Zm4.42,15.08c1.31,0,2.71-.71,2.71-2.16,0-1.91-2.06-2.06-3.57-2.06-1.11,0-2.36-.05-2.36,1.36,0,1.71,1.61,2.87,3.22,2.87Z"/>
  <path class="cls-1" d="m27.55,308.06c4.88,0,4.02-1.71,5.93-1.71,3.12,0,3.02,6.69,3.02,8.75s0,7.14-3.02,7.14c-2.41,0-.25-2.31-5.18-2.46l-7.54-.2c-3.72-.1-2.51,2.97-5.18,2.97s-5.18-11.56-5.18-12.57c0-1.11.96-1.81,1.96-1.81.3,0,.6.05.9.05.6,0,1.31-.25,1.31-1.01,0-.8-1.06-1.26-2.11-2.26-1.01-1-2.06-2.51-2.06-5.38,0-10.41,10.21-8.65,17.85-9.15,3.97-.25,3.07-2.31,5.23-2.31.9,0,3.02-.2,3.02,9.25,0,1.81.1,6.64-2.72,6.64-1.81,0-.96-1.66-4.22-1.91-3.57-.25-11.61-1.66-11.61,3.07,0,3.22,3.47,2.92,5.73,2.92h3.87Z"/>
  <path class="cls-1" d="m25.09,271.31c3.37,0,4.17-1.41,4.17-2.77,0-1.56-1.16-2.46-1.16-3.37,0-1,1.41-1.71,2.31-1.71,3.32,0,6.23,5.73,6.23,10.81,0,2.56-1.11,9-9.1,9h-10.36c-.91,0-1.26,0-1.41.25-.15.25-.05.8-.05,1.96,0,1.31.05,1.96-.2,2.21-.35.35-.85.25-2.01.25-.7,0-1.26.15-1.66-.45l-7.29-11.46c-.7-1.16-.55-1.11-.55-2.61,0-2.01-.2-2.11,2.11-2.11,1.56,0,3.12.1,3.72-.15.4-.15.4-.5.4-1.81v-3.52c0-2.16.15-2.16,2.41-2.16,2.87,0,3.07.35,3.07,2.31v3.47c0,1.76.05,1.86,1.86,1.86h7.49Z"/>
  <path class="cls-1" d="m15.84,242.39c-6.39,0-7.84.5-8.55,1.06-1.46,1.16-1.61,3.12-3.52,3.12-3.62,0-3.62-10.26-3.62-11.26,0-3.02.1-9.2,3.52-9.2,1.81,0,1.71,1.91,3.02,3.07,1.11.96,5.63,1,9.15,1h4.98c8.95,0,8.75-.6,9.35-1.61.75-1.26,1.01-2.46,2.56-2.46s3.77.45,3.77,11.46c0,2.11-.05,8.45-3.27,8.45-1.61,0-1.86-1.71-2.82-2.51-.7-.6-2.56-1.11-9.6-1.11h-4.98Z"/>
  <path class="cls-1" d="m10.56,210.87c.15-.91.35-1.71.35-2.06,0-.5-.15-.91-.35-1.36-.15-.45-.3-.91-.3-1.36,0-2.31,4.63-4.63,6.69-4.63,1.36,0,2.36,1.16,2.36,2.46,0,2.87-3.97,4.47-3.97,6.69,0,.9.75,1.81,1.71,1.81,3.22,0,3.82-11.06,11.61-11.06,4.73,0,7.99,4.58,7.99,9.8,0,1.01-.15,2.46-.35,3.72-.15,1.26-.3,2.36-.3,2.66,0,.35.05.65.1,1.01.05.3.1.6.1.96,0,1.01-.15,1.51-.96,2.21-1.41,1.26-4.27,2.51-6.18,2.51-1.31,0-2.36-.45-2.36-1.91,0-2.21,4.98-4.22,4.98-7.04,0-1.01-.5-1.96-1.61-1.96-2.97,0-3.32,9.85-11.61,9.85-5.03,0-8.2-4.12-8.2-9.3,0-1.01.1-2.06.3-3.02Z"/>
  <path class="cls-1" d="m11.71,182.36c-5.23,0-11.71-5.03-11.71-14.78,0-3.22,1.41-6.84,1.41-7.59,0-.7-.7-1.41-.7-2.46,0-1.71,3.87-5.53,8.09-5.53,1.71,0,3.42,1.11,3.42,2.97,0,3.37-5.73,5.33-5.73,10.56,0,1.56.7,3.22,2.51,3.22,3.97,0,2.92-6.89,6.79-12.72,2.06-3.12,4.58-4.68,8.35-4.68,5.88,0,12.52,4.83,12.52,16.54,0,3.32-.85,9-2.41,11.87-1.36,2.41-6.69,3.57-9.25,3.57-1.36,0-2.72-.6-2.72-2.11,0-3.57,7.99-2.97,7.99-12.22,0-1.11-.55-3.87-2.46-3.87-3.62,0-2.71,6.89-7.19,12.47-2.21,2.76-5.28,4.78-8.9,4.78Z"/>
  <path class="cls-1" d="m25.09,133.99c3.37,0,4.17-1.41,4.17-2.77,0-1.56-1.16-2.46-1.16-3.37,0-1.01,1.41-1.71,2.31-1.71,3.32,0,6.23,5.73,6.23,10.81,0,2.56-1.11,9-9.1,9h-10.36c-.91,0-1.26,0-1.41.25-.15.25-.05.8-.05,1.96,0,1.31.05,1.96-.2,2.21-.35.35-.85.25-2.01.25-.7,0-1.26.15-1.66-.45l-7.29-11.46c-.7-1.16-.55-1.11-.55-2.62,0-2.01-.2-2.11,2.11-2.11,1.56,0,3.12.1,3.72-.15.4-.15.4-.5.4-1.81v-3.52c0-2.16.15-2.16,2.41-2.16,2.87,0,3.07.35,3.07,2.31v3.47c0,1.76.05,1.86,1.86,1.86h7.49Z"/>
  <path class="cls-1" d="m8.8,120.42c0,2.11-.96,4.37-3.42,4.37-3.32,0-4.68-6.64-4.68-9.2,0-2.01.65-4.88,3.17-4.88,3.92,0,4.93,6.84,4.93,9.7Zm17.85-9.96c5.93,0,3.77-2.97,6.44-2.97,3.42,0,3.42,6.38,3.42,8.65,0,8.65-1.96,9-3.17,9-1.81,0-1.91-2.06-3.47-2.67-1.76-.65-9.05-.75-10.91-.2-1.76.45-1.21,3.02-3.47,3.02-3.57,0-5.08-12.77-5.08-13.27,0-1.51,1.16-1.56,2.21-1.56h14.03Z"/>
  <path class="cls-1" d="m27.55,91.96c4.88,0,4.02-1.71,5.93-1.71,3.12,0,3.02,6.69,3.02,8.75s0,7.14-3.02,7.14c-2.41,0-.25-2.31-5.18-2.46l-7.54-.2c-3.72-.1-2.51,2.97-5.18,2.97s-5.18-11.56-5.18-12.57c0-1.11.96-1.81,1.96-1.81.3,0,.6.05.9.05.6,0,1.31-.25,1.31-1.01,0-.8-1.06-1.26-2.11-2.26-1.01-1.01-2.06-2.51-2.06-5.38,0-10.41,10.21-8.65,17.85-9.15,3.97-.25,3.07-2.31,5.23-2.31.9,0,3.02-.2,3.02,9.25,0,1.81.1,6.64-2.72,6.64-1.81,0-.96-1.66-4.22-1.91-3.57-.25-11.61-1.66-11.61,3.07,0,3.22,3.47,2.92,5.73,2.92h3.87Z"/>
  <path class="cls-1" d="m28.31,52.99c-.3.2-2.01,1.41-2.01,1.91,0,.55,1.11.5,1.41.5,4.47.15,2.97-2.06,5.33-2.06,1.41,0,3.47.35,3.47,8.2,0,4.12.15,8.8-3.17,8.8-2.41,0-.65-2.67-4.88-2.82-3.52-.15-8.3-.4-10.51-.4h-7.19c-4.07,0-1.36,3.87-4.22,3.87-3.37,0-5.83-11.36-5.83-14.03,0-1.36.8-1.46,1.91-1.41l10.66.25c3.22.1,4.47.1,4.47-1.11,0-.8-1.71-4.02-2.46-4.02-.7,0-1.11,1.01-2.11,1.01-2.61,0-2.77-5.13-2.77-6.89,0-2.06.05-7.54,3.17-7.54,2.26,0,1.21,1.86,3.07,4.88.25.5,1.26,2.46,1.86,2.46,1.26,0,8.5-5.88,9.65-6.84,2.82-2.26,2.77-5.03,4.88-5.03,1.56,0,2.92,1.16,2.92,5.03v7.09c0,2.01-.1,2.26-1.66,3.47l-5.98,4.68Z"/>
  <path class="cls-1" d="m31.73,10.36c6.69,2.46,13.22,5.68,13.22,13.88,0,3.62-1.86,7.89-6.03,7.89-2.51,0-4.63-1.91-4.63-4.47,0-4.68,5.33-3.37,5.33-5.43,0-1.36-1.31-1.96-2.46-1.96-1.41,0-3.32,1.01-4.58,1.61l-14.73,7.04c-2.01.96-1.41,3.82-3.72,3.82-1.51,0-3.72-.91-3.72-11.51,0-1.91.2-6.44,3.07-6.44,1.36,0,1.76,1.16,2.97,1.16,1.91,0,5.43-2.21,5.43-3.07,0-1.51-3.47-2.56-4.68-2.56-2.26,0-2.11,1.61-3.82,1.61-2.66,0-2.97-4.73-2.97-6.54,0-1.66.25-5.38,2.56-5.38,2.97,0,1.66,3.02,4.63,4.78,1.76,1.11,3.97,1.91,5.93,2.61l8.2,2.97Z"/>
</svg>