<?xml version="1.0" encoding="UTF-8"?>
<svg id="Layer_1" data-name="Layer 1" xmlns="http://www.w3.org/2000/svg" viewBox="0 0 348.71 698.21">
  <defs>
    <style>
      .cls-1 {
        fill: #231f20;
        stroke-width: 0px;
      }
    </style>
  </defs>
  <g>
    <path class="cls-1" d="m40.39,674.84v16.09c0,4.19-.95,6.15-5.92,6.15H5.98c-4.97,0-5.92-1.96-5.92-6.15v-16.09c0-4.19.95-6.14,5.92-6.14h4.58c1.06,0,1.51.45,1.51,1.51v2.68c0,1.06-.45,1.51-1.51,1.51h-3.07c-1.62,0-1.96.34-1.96,2.01v12.9c0,1.68.34,2.01,1.96,2.01h25.53c1.62,0,1.96-.33,1.96-2.01v-12.9c0-1.79-.34-2.01-1.96-2.01h-7.32v6.82c0,1.06-.45,1.51-1.51,1.51h-2.46c-1.06,0-1.51-.45-1.51-1.51v-11.01c0-1.06.45-1.51,1.51-1.51h12.74c4.97,0,5.92,1.96,5.92,6.14Z"/>
    <path class="cls-1" d="m39.1,607.47c.78-.45,1.28-.17,1.28.78v2.96c0,1.12-.33,1.73-1.28,2.29l-14.19,8.32v6.26h13.97c1.06,0,1.51.45,1.51,1.51v2.74c0,1.06-.45,1.51-1.51,1.51H1.56c-1.06,0-1.51-.45-1.51-1.51v-19.61c0-4.19.95-6.15,5.92-6.15h13.02c4.97,0,5.92,1.96,5.92,6.15v3.13l14.19-8.38Zm-21.56,4.75H7.49c-1.62,0-1.96.33-1.96,2.01v13.8h13.97v-13.8c0-1.79-.33-2.01-1.96-2.01Z"/>
    <path class="cls-1" d="m38.88,544.36c1.06,0,1.51.45,1.51,1.51v2.68c0,1.06-.45,1.51-1.51,1.51h-12.96v16.37h12.96c1.06,0,1.51.45,1.51,1.51v2.74c0,1.06-.45,1.51-1.51,1.51H5.98c-4.97,0-5.92-1.96-5.92-6.15v-15.53c0-4.19.95-6.14,5.92-6.14h32.9Zm-18.38,5.7H7.49c-1.62,0-1.96.34-1.96,2.01v12.35c0,1.68.34,2.01,1.96,2.01h13.02v-16.37Z"/>
    <path class="cls-1" d="m38.88,480.96c1.06,0,1.51.45,1.51,1.51v4.08c0,1.12-.39,1.73-1.4,2.23l-28.94,14.58h28.77c1.06,0,1.51.45,1.51,1.51v2.74c0,1.06-.45,1.51-1.51,1.51H1.51c-1.06,0-1.51-.45-1.51-1.51v-3.91c0-1.12.39-1.73,1.4-2.23l29.27-14.75H1.56c-1.06,0-1.51-.45-1.51-1.51v-2.74c0-1.06.45-1.51,1.51-1.51h37.32Z"/>
    <path class="cls-1" d="m38.88,432.03c1.06,0,1.51.45,1.51,1.51v2.74c0,1.06-.45,1.51-1.51,1.51H5.53v9.44c0,1.06-.45,1.51-1.51,1.51H1.56c-1.06,0-1.51-.45-1.51-1.51v-24.58c0-1.06.45-1.51,1.51-1.51h2.46c1.06,0,1.51.45,1.51,1.51v9.38h33.35Z"/>
    <path class="cls-1" d="m38.88,345.68c1.06,0,1.51.45,1.51,1.51v2.74c0,1.06-.45,1.51-1.51,1.51H1.56c-1.06,0-1.51-.45-1.51-1.51v-2.74c0-1.06.45-1.51,1.51-1.51h37.32Z"/>
    <path class="cls-1" d="m40.39,289.21v15.47c0,4.19-.95,6.14-5.92,6.14h-4.58c-1.06,0-1.51-.45-1.51-1.51v-2.68c0-1.06.45-1.51,1.51-1.51h3.13c1.62,0,1.96-.33,1.96-2.01v-12.29c0-1.68-.34-2.01-1.96-2.01h-8.1c-1.62,0-1.96.33-1.96,2.01v13.91c0,4.19-.95,6.14-5.92,6.14H5.98c-4.97,0-5.92-1.96-5.92-6.14v-15.47c0-4.19.95-6.15,5.92-6.15h4.58c1.06,0,1.51.45,1.51,1.51v2.74c0,1.06-.45,1.51-1.51,1.51h-3.07c-1.62,0-1.96.34-1.96,2.01v12.29c0,1.68.34,2.01,1.96,2.01h8.1c1.62,0,1.96-.34,1.96-2.01v-13.96c0-4.19.95-6.15,5.92-6.15h11c4.97,0,5.92,1.96,5.92,6.15Z"/>
    <path class="cls-1" d="m40.39,188.38v15.47c0,4.19-.95,6.14-5.92,6.14h-4.58c-1.06,0-1.51-.45-1.51-1.51v-2.68c0-1.06.45-1.51,1.51-1.51h3.13c1.62,0,1.96-.34,1.96-2.01v-12.29c0-1.68-.34-2.01-1.96-2.01h-8.1c-1.62,0-1.96.33-1.96,2.01v13.91c0,4.19-.95,6.14-5.92,6.14H5.98c-4.97,0-5.92-1.96-5.92-6.14v-15.47c0-4.19.95-6.15,5.92-6.15h4.58c1.06,0,1.51.45,1.51,1.51v2.74c0,1.06-.45,1.51-1.51,1.51h-3.07c-1.62,0-1.96.34-1.96,2.01v12.29c0,1.68.34,2.01,1.96,2.01h8.1c1.62,0,1.96-.34,1.96-2.01v-13.96c0-4.19.95-6.15,5.92-6.15h11c4.97,0,5.92,1.96,5.92,6.15Z"/>
    <path class="cls-1" d="m38.88,123.42c1.06,0,1.51.45,1.51,1.51v21c0,1.06-.45,1.51-1.51,1.51H1.56c-1.06,0-1.51-.45-1.51-1.51v-2.74c0-1.06.45-1.51,1.51-1.51h33.41v-16.76c0-1.06.45-1.51,1.51-1.51h2.4Z"/>
    <path class="cls-1" d="m38.88,63.49c1.06,0,1.51.45,1.51,1.51v2.68c0,1.06-.45,1.51-1.51,1.51h-12.96v16.37h12.96c1.06,0,1.51.45,1.51,1.51v2.74c0,1.06-.45,1.51-1.51,1.51H5.98c-4.97,0-5.92-1.96-5.92-6.15v-15.53c0-4.19.95-6.14,5.92-6.14h32.9Zm-18.38,5.7H7.49c-1.62,0-1.96.34-1.96,2.01v12.35c0,1.68.34,2.01,1.96,2.01h13.02v-16.37Z"/>
    <path class="cls-1" d="m38.88,11.77c1.06,0,1.51.45,1.51,1.51v2.74c0,1.06-.45,1.51-1.51,1.51h-15.19v5.87c0,4.19-.95,6.14-5.92,6.14H1.56c-1.06,0-1.51-.45-1.51-1.51v-2.74c0-1.06.45-1.51,1.51-1.51h14.75c1.62,0,1.96-.34,1.96-2.01V7.74c0-1.79-.33-2.01-1.96-2.01H1.56C.5,5.73.06,5.29.06,4.22V1.54C.06.48.5.04,1.56.04h16.2c4.97,0,5.92,1.96,5.92,6.15v5.59h15.19Z"/>
  </g>
  <g>
    <path class="cls-1" d="m119.95,675.69v16.09c0,4.19-.95,6.15-5.92,6.15h-28.49c-4.97,0-5.92-1.96-5.92-6.15v-16.09c0-4.19.95-6.14,5.92-6.14h4.58c1.06,0,1.51.45,1.51,1.51v2.68c0,1.06-.45,1.51-1.51,1.51h-3.07c-1.62,0-1.96.34-1.96,2.01v12.9c0,1.68.34,2.01,1.96,2.01h25.53c1.62,0,1.96-.33,1.96-2.01v-12.9c0-1.79-.34-2.01-1.96-2.01h-7.32v6.82c0,1.06-.45,1.51-1.51,1.51h-2.46c-1.06,0-1.51-.45-1.51-1.51v-11.01c0-1.06.45-1.51,1.51-1.51h12.74c4.97,0,5.92,1.96,5.92,6.14Z"/>
    <path class="cls-1" d="m118.66,608.33c.78-.45,1.28-.17,1.28.78v2.96c0,1.12-.33,1.73-1.28,2.29l-14.19,8.32v6.26h13.97c1.06,0,1.51.45,1.51,1.51v2.74c0,1.06-.45,1.51-1.51,1.51h-37.32c-1.06,0-1.51-.45-1.51-1.51v-19.61c0-4.19.95-6.15,5.92-6.15h13.02c4.97,0,5.92,1.96,5.92,6.15v3.13l14.19-8.38Zm-21.56,4.75h-10.06c-1.62,0-1.96.33-1.96,2.01v13.8h13.97v-13.8c0-1.79-.33-2.01-1.96-2.01Z"/>
    <path class="cls-1" d="m118.44,545.21c1.06,0,1.51.45,1.51,1.51v2.68c0,1.06-.45,1.51-1.51,1.51h-12.96v16.37h12.96c1.06,0,1.51.45,1.51,1.51v2.74c0,1.06-.45,1.51-1.51,1.51h-32.9c-4.97,0-5.92-1.96-5.92-6.15v-15.53c0-4.19.95-6.14,5.92-6.14h32.9Zm-18.38,5.7h-13.02c-1.62,0-1.96.34-1.96,2.01v12.35c0,1.68.34,2.01,1.96,2.01h13.02v-16.37Z"/>
    <path class="cls-1" d="m118.44,481.81c1.06,0,1.51.45,1.51,1.51v4.08c0,1.12-.39,1.73-1.4,2.23l-28.94,14.58h28.77c1.06,0,1.51.45,1.51,1.51v2.74c0,1.06-.45,1.51-1.51,1.51h-37.32c-1.06,0-1.51-.45-1.51-1.51v-3.91c0-1.12.39-1.73,1.4-2.23l29.27-14.75h-29.1c-1.06,0-1.51-.45-1.51-1.51v-2.74c0-1.06.45-1.51,1.51-1.51h37.32Z"/>
    <path class="cls-1" d="m118.44,432.88c1.06,0,1.51.45,1.51,1.51v2.74c0,1.06-.45,1.51-1.51,1.51h-33.35v9.44c0,1.06-.45,1.51-1.51,1.51h-2.46c-1.06,0-1.51-.45-1.51-1.51v-24.58c0-1.06.45-1.51,1.51-1.51h2.46c1.06,0,1.51.45,1.51,1.51v9.38h33.35Z"/>
    <path class="cls-1" d="m118.44,346.53c1.06,0,1.51.45,1.51,1.51v2.74c0,1.06-.45,1.51-1.51,1.51h-37.32c-1.06,0-1.51-.45-1.51-1.51v-2.74c0-1.06.45-1.51,1.51-1.51h37.32Z"/>
    <path class="cls-1" d="m119.95,290.06v15.47c0,4.19-.95,6.14-5.92,6.14h-4.58c-1.06,0-1.51-.45-1.51-1.51v-2.68c0-1.06.45-1.51,1.51-1.51h3.13c1.62,0,1.96-.33,1.96-2.01v-12.29c0-1.68-.34-2.01-1.96-2.01h-8.1c-1.62,0-1.96.33-1.96,2.01v13.91c0,4.19-.95,6.14-5.92,6.14h-11.06c-4.97,0-5.92-1.96-5.92-6.14v-15.47c0-4.19.95-6.15,5.92-6.15h4.58c1.06,0,1.51.45,1.51,1.51v2.74c0,1.06-.45,1.51-1.51,1.51h-3.07c-1.62,0-1.96.34-1.96,2.01v12.29c0,1.68.34,2.01,1.96,2.01h8.1c1.62,0,1.96-.34,1.96-2.01v-13.96c0-4.19.95-6.15,5.92-6.15h11c4.97,0,5.92,1.96,5.92,6.15Z"/>
    <path class="cls-1" d="m119.95,189.24v15.47c0,4.19-.95,6.14-5.92,6.14h-4.58c-1.06,0-1.51-.45-1.51-1.51v-2.68c0-1.06.45-1.51,1.51-1.51h3.13c1.62,0,1.96-.34,1.96-2.01v-12.29c0-1.68-.34-2.01-1.96-2.01h-8.1c-1.62,0-1.96.33-1.96,2.01v13.91c0,4.19-.95,6.14-5.92,6.14h-11.06c-4.97,0-5.92-1.96-5.92-6.14v-15.47c0-4.19.95-6.15,5.92-6.15h4.58c1.06,0,1.51.45,1.51,1.51v2.74c0,1.06-.45,1.51-1.51,1.51h-3.07c-1.62,0-1.96.34-1.96,2.01v12.29c0,1.68.34,2.01,1.96,2.01h8.1c1.62,0,1.96-.34,1.96-2.01v-13.96c0-4.19.95-6.15,5.92-6.15h11c4.97,0,5.92,1.96,5.92,6.15Z"/>
    <path class="cls-1" d="m118.44,124.28c1.06,0,1.51.45,1.51,1.51v21c0,1.06-.45,1.51-1.51,1.51h-37.32c-1.06,0-1.51-.45-1.51-1.51v-2.74c0-1.06.45-1.51,1.51-1.51h33.41v-16.76c0-1.06.45-1.51,1.51-1.51h2.4Z"/>
    <path class="cls-1" d="m118.44,64.34c1.06,0,1.51.45,1.51,1.51v2.68c0,1.06-.45,1.51-1.51,1.51h-12.96v16.37h12.96c1.06,0,1.51.45,1.51,1.51v2.74c0,1.06-.45,1.51-1.51,1.51h-32.9c-4.97,0-5.92-1.96-5.92-6.15v-15.53c0-4.19.95-6.14,5.92-6.14h32.9Zm-18.38,5.7h-13.02c-1.62,0-1.96.34-1.96,2.01v12.35c0,1.68.34,2.01,1.96,2.01h13.02v-16.37Z"/>
    <path class="cls-1" d="m118.44,12.62c1.06,0,1.51.45,1.51,1.51v2.74c0,1.06-.45,1.51-1.51,1.51h-15.19v5.87c0,4.19-.95,6.14-5.92,6.14h-16.2c-1.06,0-1.51-.45-1.51-1.51v-2.74c0-1.06.45-1.51,1.51-1.51h14.75c1.62,0,1.96-.34,1.96-2.01v-14.02c0-1.79-.33-2.01-1.96-2.01h-14.75c-1.06,0-1.51-.45-1.51-1.51v-2.68c0-1.06.45-1.51,1.51-1.51h16.2c4.97,0,5.92,1.96,5.92,6.15v5.59h15.19Z"/>
  </g>
  <g>
    <path class="cls-1" d="m192.06,675.98v16.09c0,4.19-.95,6.15-5.92,6.15h-28.49c-4.97,0-5.92-1.96-5.92-6.15v-16.09c0-4.19.95-6.14,5.92-6.14h4.58c1.06,0,1.51.45,1.51,1.51v2.68c0,1.06-.45,1.51-1.51,1.51h-3.07c-1.62,0-1.96.34-1.96,2.01v12.9c0,1.68.34,2.01,1.96,2.01h25.53c1.62,0,1.96-.33,1.96-2.01v-12.9c0-1.79-.34-2.01-1.96-2.01h-7.32v6.82c0,1.06-.45,1.51-1.51,1.51h-2.46c-1.06,0-1.51-.45-1.51-1.51v-11.01c0-1.06.45-1.51,1.51-1.51h12.74c4.97,0,5.92,1.96,5.92,6.14Z"/>
    <path class="cls-1" d="m190.78,608.61c.78-.45,1.28-.17,1.28.78v2.96c0,1.12-.33,1.73-1.28,2.29l-14.19,8.32v6.26h13.97c1.06,0,1.51.45,1.51,1.51v2.74c0,1.06-.45,1.51-1.51,1.51h-37.32c-1.06,0-1.51-.45-1.51-1.51v-19.61c0-4.19.95-6.15,5.92-6.15h13.02c4.97,0,5.92,1.96,5.92,6.15v3.13l14.19-8.38Zm-21.56,4.75h-10.06c-1.62,0-1.96.33-1.96,2.01v13.8h13.97v-13.8c0-1.79-.33-2.01-1.96-2.01Z"/>
    <path class="cls-1" d="m190.56,545.5c1.06,0,1.51.45,1.51,1.51v2.68c0,1.06-.45,1.51-1.51,1.51h-12.96v16.37h12.96c1.06,0,1.51.45,1.51,1.51v2.74c0,1.06-.45,1.51-1.51,1.51h-32.9c-4.97,0-5.92-1.96-5.92-6.15v-15.53c0-4.19.95-6.14,5.92-6.14h32.9Zm-18.38,5.7h-13.02c-1.62,0-1.96.34-1.96,2.01v12.35c0,1.68.34,2.01,1.96,2.01h13.02v-16.37Z"/>
    <path class="cls-1" d="m190.56,482.1c1.06,0,1.51.45,1.51,1.51v4.08c0,1.12-.39,1.73-1.4,2.23l-28.94,14.58h28.77c1.06,0,1.51.45,1.51,1.51v2.74c0,1.06-.45,1.51-1.51,1.51h-37.32c-1.06,0-1.51-.45-1.51-1.51v-3.91c0-1.12.39-1.73,1.4-2.23l29.27-14.75h-29.1c-1.06,0-1.51-.45-1.51-1.51v-2.74c0-1.06.45-1.51,1.51-1.51h37.32Z"/>
    <path class="cls-1" d="m190.56,433.17c1.06,0,1.51.45,1.51,1.51v2.74c0,1.06-.45,1.51-1.51,1.51h-33.35v9.44c0,1.06-.45,1.51-1.51,1.51h-2.46c-1.06,0-1.51-.45-1.51-1.51v-24.58c0-1.06.45-1.51,1.51-1.51h2.46c1.06,0,1.51.45,1.51,1.51v9.38h33.35Z"/>
    <path class="cls-1" d="m190.56,346.82c1.06,0,1.51.45,1.51,1.51v2.74c0,1.06-.45,1.51-1.51,1.51h-37.32c-1.06,0-1.51-.45-1.51-1.51v-2.74c0-1.06.45-1.51,1.51-1.51h37.32Z"/>
    <path class="cls-1" d="m192.06,290.34v15.47c0,4.19-.95,6.14-5.92,6.14h-4.58c-1.06,0-1.51-.45-1.51-1.51v-2.68c0-1.06.45-1.51,1.51-1.51h3.13c1.62,0,1.96-.33,1.96-2.01v-12.29c0-1.68-.34-2.01-1.96-2.01h-8.1c-1.62,0-1.96.33-1.96,2.01v13.91c0,4.19-.95,6.14-5.92,6.14h-11.06c-4.97,0-5.92-1.96-5.92-6.14v-15.47c0-4.19.95-6.15,5.92-6.15h4.58c1.06,0,1.51.45,1.51,1.51v2.74c0,1.06-.45,1.51-1.51,1.51h-3.07c-1.62,0-1.96.34-1.96,2.01v12.29c0,1.68.34,2.01,1.96,2.01h8.1c1.62,0,1.96-.34,1.96-2.01v-13.96c0-4.19.95-6.15,5.92-6.15h11c4.97,0,5.92,1.96,5.92,6.15Z"/>
    <path class="cls-1" d="m192.06,189.52v15.47c0,4.19-.95,6.14-5.92,6.14h-4.58c-1.06,0-1.51-.45-1.51-1.51v-2.68c0-1.06.45-1.51,1.51-1.51h3.13c1.62,0,1.96-.34,1.96-2.01v-12.29c0-1.68-.34-2.01-1.96-2.01h-8.1c-1.62,0-1.96.33-1.96,2.01v13.91c0,4.19-.95,6.14-5.92,6.14h-11.06c-4.97,0-5.92-1.96-5.92-6.14v-15.47c0-4.19.95-6.15,5.92-6.15h4.58c1.06,0,1.51.45,1.51,1.51v2.74c0,1.06-.45,1.51-1.51,1.51h-3.07c-1.62,0-1.96.34-1.96,2.01v12.29c0,1.68.34,2.01,1.96,2.01h8.1c1.62,0,1.96-.34,1.96-2.01v-13.96c0-4.19.95-6.15,5.92-6.15h11c4.97,0,5.92,1.96,5.92,6.15Z"/>
    <path class="cls-1" d="m190.56,124.56c1.06,0,1.51.45,1.51,1.51v21c0,1.06-.45,1.51-1.51,1.51h-37.32c-1.06,0-1.51-.45-1.51-1.51v-2.74c0-1.06.45-1.51,1.51-1.51h33.41v-16.76c0-1.06.45-1.51,1.51-1.51h2.4Z"/>
    <path class="cls-1" d="m190.56,64.63c1.06,0,1.51.45,1.51,1.51v2.68c0,1.06-.45,1.51-1.51,1.51h-12.96v16.37h12.96c1.06,0,1.51.45,1.51,1.51v2.74c0,1.06-.45,1.51-1.51,1.51h-32.9c-4.97,0-5.92-1.96-5.92-6.15v-15.53c0-4.19.95-6.14,5.92-6.14h32.9Zm-18.38,5.7h-13.02c-1.62,0-1.96.34-1.96,2.01v12.35c0,1.68.34,2.01,1.96,2.01h13.02v-16.37Z"/>
    <path class="cls-1" d="m190.56,12.91c1.06,0,1.51.45,1.51,1.51v2.74c0,1.06-.45,1.51-1.51,1.51h-15.19v5.87c0,4.19-.95,6.14-5.92,6.14h-16.2c-1.06,0-1.51-.45-1.51-1.51v-2.74c0-1.06.45-1.51,1.51-1.51h14.75c1.62,0,1.96-.34,1.96-2.01v-14.02c0-1.79-.33-2.01-1.96-2.01h-14.75c-1.06,0-1.51-.45-1.51-1.51v-2.68c0-1.06.45-1.51,1.51-1.51h16.2c4.97,0,5.92,1.96,5.92,6.15v5.59h15.19Z"/>
  </g>
  <g>
    <path class="cls-1" d="m271.62,674.8v16.09c0,4.19-.95,6.15-5.92,6.15h-28.49c-4.97,0-5.92-1.96-5.92-6.15v-16.09c0-4.19.95-6.14,5.92-6.14h4.58c1.06,0,1.51.45,1.51,1.51v2.68c0,1.06-.45,1.51-1.51,1.51h-3.07c-1.62,0-1.96.34-1.96,2.01v12.9c0,1.68.34,2.01,1.96,2.01h25.53c1.62,0,1.96-.33,1.96-2.01v-12.9c0-1.79-.34-2.01-1.96-2.01h-7.32v6.82c0,1.06-.45,1.51-1.51,1.51h-2.46c-1.06,0-1.51-.45-1.51-1.51v-11.01c0-1.06.45-1.51,1.51-1.51h12.74c4.97,0,5.92,1.96,5.92,6.14Z"/>
    <path class="cls-1" d="m270.34,607.44c.78-.45,1.28-.17,1.28.78v2.96c0,1.12-.33,1.73-1.28,2.29l-14.19,8.32v6.26h13.97c1.06,0,1.51.45,1.51,1.51v2.74c0,1.06-.45,1.51-1.51,1.51h-37.32c-1.06,0-1.51-.45-1.51-1.51v-19.61c0-4.19.95-6.15,5.92-6.15h13.02c4.97,0,5.92,1.96,5.92,6.15v3.13l14.19-8.38Zm-21.56,4.75h-10.05c-1.62,0-1.96.33-1.96,2.01v13.8h13.97v-13.8c0-1.79-.33-2.01-1.96-2.01Z"/>
    <path class="cls-1" d="m270.11,544.32c1.06,0,1.51.45,1.51,1.51v2.68c0,1.06-.45,1.51-1.51,1.51h-12.96v16.37h12.96c1.06,0,1.51.45,1.51,1.51v2.74c0,1.06-.45,1.51-1.51,1.51h-32.9c-4.97,0-5.92-1.96-5.92-6.15v-15.53c0-4.19.95-6.14,5.92-6.14h32.9Zm-18.38,5.7h-13.02c-1.62,0-1.96.34-1.96,2.01v12.35c0,1.68.34,2.01,1.96,2.01h13.02v-16.37Z"/>
    <path class="cls-1" d="m270.11,480.92c1.06,0,1.51.45,1.51,1.51v4.08c0,1.12-.39,1.73-1.4,2.23l-28.94,14.58h28.77c1.06,0,1.51.45,1.51,1.51v2.74c0,1.06-.45,1.51-1.51,1.51h-37.32c-1.06,0-1.51-.45-1.51-1.51v-3.91c0-1.12.39-1.73,1.4-2.23l29.27-14.75h-29.1c-1.06,0-1.51-.45-1.51-1.51v-2.74c0-1.06.45-1.51,1.51-1.51h37.32Z"/>
    <path class="cls-1" d="m270.11,432c1.06,0,1.51.45,1.51,1.51v2.74c0,1.06-.45,1.51-1.51,1.51h-33.35v9.44c0,1.06-.45,1.51-1.51,1.51h-2.46c-1.06,0-1.51-.45-1.51-1.51v-24.58c0-1.06.45-1.51,1.51-1.51h2.46c1.06,0,1.51.45,1.51,1.51v9.38h33.35Z"/>
    <path class="cls-1" d="m270.11,345.64c1.06,0,1.51.45,1.51,1.51v2.74c0,1.06-.45,1.51-1.51,1.51h-37.32c-1.06,0-1.51-.45-1.51-1.51v-2.74c0-1.06.45-1.51,1.51-1.51h37.32Z"/>
    <path class="cls-1" d="m271.62,289.17v15.47c0,4.19-.95,6.14-5.92,6.14h-4.58c-1.06,0-1.51-.45-1.51-1.51v-2.68c0-1.06.45-1.51,1.51-1.51h3.13c1.62,0,1.96-.33,1.96-2.01v-12.29c0-1.68-.34-2.01-1.96-2.01h-8.1c-1.62,0-1.96.33-1.96,2.01v13.91c0,4.19-.95,6.14-5.92,6.14h-11.06c-4.97,0-5.92-1.96-5.92-6.14v-15.47c0-4.19.95-6.15,5.92-6.15h4.58c1.06,0,1.51.45,1.51,1.51v2.74c0,1.06-.45,1.51-1.51,1.51h-3.07c-1.62,0-1.96.34-1.96,2.01v12.29c0,1.68.34,2.01,1.96,2.01h8.1c1.62,0,1.96-.34,1.96-2.01v-13.96c0-4.19.95-6.15,5.92-6.15h11c4.97,0,5.92,1.96,5.92,6.15Z"/>
    <path class="cls-1" d="m271.62,188.35v15.47c0,4.19-.95,6.14-5.92,6.14h-4.58c-1.06,0-1.51-.45-1.51-1.51v-2.68c0-1.06.45-1.51,1.51-1.51h3.13c1.62,0,1.96-.34,1.96-2.01v-12.29c0-1.68-.34-2.01-1.96-2.01h-8.1c-1.62,0-1.96.33-1.96,2.01v13.91c0,4.19-.95,6.14-5.92,6.14h-11.06c-4.97,0-5.92-1.96-5.92-6.14v-15.47c0-4.19.95-6.15,5.92-6.15h4.58c1.06,0,1.51.45,1.51,1.51v2.74c0,1.06-.45,1.51-1.51,1.51h-3.07c-1.62,0-1.96.34-1.96,2.01v12.29c0,1.68.34,2.01,1.96,2.01h8.1c1.62,0,1.96-.34,1.96-2.01v-13.96c0-4.19.95-6.15,5.92-6.15h11c4.97,0,5.92,1.96,5.92,6.15Z"/>
    <path class="cls-1" d="m270.11,123.39c1.06,0,1.51.45,1.51,1.51v21c0,1.06-.45,1.51-1.51,1.51h-37.32c-1.06,0-1.51-.45-1.51-1.51v-2.74c0-1.06.45-1.51,1.51-1.51h33.41v-16.76c0-1.06.45-1.51,1.51-1.51h2.4Z"/>
    <path class="cls-1" d="m270.11,63.45c1.06,0,1.51.45,1.51,1.51v2.68c0,1.06-.45,1.51-1.51,1.51h-12.96v16.37h12.96c1.06,0,1.51.45,1.51,1.51v2.74c0,1.06-.45,1.51-1.51,1.51h-32.9c-4.97,0-5.92-1.96-5.92-6.15v-15.53c0-4.19.95-6.14,5.92-6.14h32.9Zm-18.38,5.7h-13.02c-1.62,0-1.96.34-1.96,2.01v12.35c0,1.68.34,2.01,1.96,2.01h13.02v-16.37Z"/>
    <path class="cls-1" d="m270.11,11.73c1.06,0,1.51.45,1.51,1.51v2.74c0,1.06-.45,1.51-1.51,1.51h-15.19v5.87c0,4.19-.95,6.14-5.92,6.14h-16.2c-1.06,0-1.51-.45-1.51-1.51v-2.74c0-1.06.45-1.51,1.51-1.51h14.75c1.62,0,1.96-.34,1.96-2.01V7.71c0-1.79-.33-2.01-1.96-2.01h-14.75c-1.06,0-1.51-.45-1.51-1.51V1.51c0-1.06.45-1.51,1.51-1.51h16.2c4.97,0,5.92,1.96,5.92,6.15v5.59h15.19Z"/>
  </g>
  <g>
    <path class="cls-1" d="m348.71,674.8v16.09c0,4.19-.95,6.15-5.92,6.15h-28.49c-4.97,0-5.92-1.96-5.92-6.15v-16.09c0-4.19.95-6.14,5.92-6.14h4.58c1.06,0,1.51.45,1.51,1.51v2.68c0,1.06-.45,1.51-1.51,1.51h-3.07c-1.62,0-1.96.34-1.96,2.01v12.9c0,1.68.34,2.01,1.96,2.01h25.53c1.62,0,1.96-.33,1.96-2.01v-12.9c0-1.79-.34-2.01-1.96-2.01h-7.32v6.82c0,1.06-.45,1.51-1.51,1.51h-2.46c-1.06,0-1.51-.45-1.51-1.51v-11.01c0-1.06.45-1.51,1.51-1.51h12.74c4.97,0,5.92,1.96,5.92,6.14Z"/>
    <path class="cls-1" d="m347.43,607.44c.78-.45,1.28-.17,1.28.78v2.96c0,1.12-.33,1.73-1.28,2.29l-14.19,8.32v6.26h13.97c1.06,0,1.51.45,1.51,1.51v2.74c0,1.06-.45,1.51-1.51,1.51h-37.32c-1.06,0-1.51-.45-1.51-1.51v-19.61c0-4.19.95-6.15,5.92-6.15h13.02c4.97,0,5.92,1.96,5.92,6.15v3.13l14.19-8.38Zm-21.56,4.75h-10.05c-1.62,0-1.96.33-1.96,2.01v13.8h13.97v-13.8c0-1.79-.33-2.01-1.96-2.01Z"/>
    <path class="cls-1" d="m347.2,544.32c1.06,0,1.51.45,1.51,1.51v2.68c0,1.06-.45,1.51-1.51,1.51h-12.96v16.37h12.96c1.06,0,1.51.45,1.51,1.51v2.74c0,1.06-.45,1.51-1.51,1.51h-32.9c-4.97,0-5.92-1.96-5.92-6.15v-15.53c0-4.19.95-6.14,5.92-6.14h32.9Zm-18.38,5.7h-13.02c-1.62,0-1.96.34-1.96,2.01v12.35c0,1.68.34,2.01,1.96,2.01h13.02v-16.37Z"/>
    <path class="cls-1" d="m347.2,480.92c1.06,0,1.51.45,1.51,1.51v4.08c0,1.12-.39,1.73-1.4,2.23l-28.94,14.58h28.77c1.06,0,1.51.45,1.51,1.51v2.74c0,1.06-.45,1.51-1.51,1.51h-37.32c-1.06,0-1.51-.45-1.51-1.51v-3.91c0-1.12.39-1.73,1.4-2.23l29.27-14.75h-29.1c-1.06,0-1.51-.45-1.51-1.51v-2.74c0-1.06.45-1.51,1.51-1.51h37.32Z"/>
    <path class="cls-1" d="m347.2,432c1.06,0,1.51.45,1.51,1.51v2.74c0,1.06-.45,1.51-1.51,1.51h-33.35v9.44c0,1.06-.45,1.51-1.51,1.51h-2.46c-1.06,0-1.51-.45-1.51-1.51v-24.58c0-1.06.45-1.51,1.51-1.51h2.46c1.06,0,1.51.45,1.51,1.51v9.38h33.35Z"/>
    <path class="cls-1" d="m347.2,345.64c1.06,0,1.51.45,1.51,1.51v2.74c0,1.06-.45,1.51-1.51,1.51h-37.32c-1.06,0-1.51-.45-1.51-1.51v-2.74c0-1.06.45-1.51,1.51-1.51h37.32Z"/>
    <path class="cls-1" d="m348.71,289.17v15.47c0,4.19-.95,6.14-5.92,6.14h-4.58c-1.06,0-1.51-.45-1.51-1.51v-2.68c0-1.06.45-1.51,1.51-1.51h3.13c1.62,0,1.96-.33,1.96-2.01v-12.29c0-1.68-.34-2.01-1.96-2.01h-8.1c-1.62,0-1.96.33-1.96,2.01v13.91c0,4.19-.95,6.14-5.92,6.14h-11.06c-4.97,0-5.92-1.96-5.92-6.14v-15.47c0-4.19.95-6.15,5.92-6.15h4.58c1.06,0,1.51.45,1.51,1.51v2.74c0,1.06-.45,1.51-1.51,1.51h-3.07c-1.62,0-1.96.34-1.96,2.01v12.29c0,1.68.34,2.01,1.96,2.01h8.1c1.62,0,1.96-.34,1.96-2.01v-13.96c0-4.19.95-6.15,5.92-6.15h11c4.97,0,5.92,1.96,5.92,6.15Z"/>
    <path class="cls-1" d="m348.71,188.35v15.47c0,4.19-.95,6.14-5.92,6.14h-4.58c-1.06,0-1.51-.45-1.51-1.51v-2.68c0-1.06.45-1.51,1.51-1.51h3.13c1.62,0,1.96-.34,1.96-2.01v-12.29c0-1.68-.34-2.01-1.96-2.01h-8.1c-1.62,0-1.96.33-1.96,2.01v13.91c0,4.19-.95,6.14-5.92,6.14h-11.06c-4.97,0-5.92-1.96-5.92-6.14v-15.47c0-4.19.95-6.15,5.92-6.15h4.58c1.06,0,1.51.45,1.51,1.51v2.74c0,1.06-.45,1.51-1.51,1.51h-3.07c-1.62,0-1.96.34-1.96,2.01v12.29c0,1.68.34,2.01,1.96,2.01h8.1c1.62,0,1.96-.34,1.96-2.01v-13.96c0-4.19.95-6.15,5.92-6.15h11c4.97,0,5.92,1.96,5.92,6.15Z"/>
    <path class="cls-1" d="m347.2,123.39c1.06,0,1.51.45,1.51,1.51v21c0,1.06-.45,1.51-1.51,1.51h-37.32c-1.06,0-1.51-.45-1.51-1.51v-2.74c0-1.06.45-1.51,1.51-1.51h33.41v-16.76c0-1.06.45-1.51,1.51-1.51h2.4Z"/>
    <path class="cls-1" d="m347.2,63.45c1.06,0,1.51.45,1.51,1.51v2.68c0,1.06-.45,1.51-1.51,1.51h-12.96v16.37h12.96c1.06,0,1.51.45,1.51,1.51v2.74c0,1.06-.45,1.51-1.51,1.51h-32.9c-4.97,0-5.92-1.96-5.92-6.15v-15.53c0-4.19.95-6.14,5.92-6.14h32.9Zm-18.38,5.7h-13.02c-1.62,0-1.96.34-1.96,2.01v12.35c0,1.68.34,2.01,1.96,2.01h13.02v-16.37Z"/>
    <path class="cls-1" d="m347.2,11.73c1.06,0,1.51.45,1.51,1.51v2.74c0,1.06-.45,1.51-1.51,1.51h-15.19v5.87c0,4.19-.95,6.14-5.92,6.14h-16.2c-1.06,0-1.51-.45-1.51-1.51v-2.74c0-1.06.45-1.51,1.51-1.51h14.75c1.62,0,1.96-.34,1.96-2.01V7.71c0-1.79-.33-2.01-1.96-2.01h-14.75c-1.06,0-1.51-.45-1.51-1.51V1.51c0-1.06.45-1.51,1.51-1.51h16.2c4.97,0,5.92,1.96,5.92,6.15v5.59h15.19Z"/>
  </g>
</svg>