<?xml version="1.0" encoding="UTF-8"?>
<svg id="Layer_1" data-name="Layer 1" xmlns="http://www.w3.org/2000/svg" viewBox="0 0 479.81 462.96">
  <defs>
    <style>
      .cls-1 {
        fill: #231f20;
        stroke-width: 0px;
      }
    </style>
  </defs>
  <g>
    <path class="cls-1" d="m51.31,431.88v20.44c0,5.32-1.21,7.81-7.52,7.81H7.59c-6.32,0-7.52-2.48-7.52-7.81v-20.44c0-5.32,1.21-7.81,7.52-7.81h5.82c1.35,0,1.92.57,1.92,1.92v3.41c0,1.35-.57,1.92-1.92,1.92h-3.9c-2.06,0-2.48.43-2.48,2.55v16.39c0,2.13.43,2.55,2.48,2.55h32.43c2.06,0,2.48-.43,2.48-2.55v-16.39c0-2.27-.43-2.55-2.48-2.55h-9.3v8.66c0,1.35-.57,1.92-1.92,1.92h-3.12c-1.35,0-1.92-.57-1.92-1.92v-13.98c0-1.35.57-1.92,1.92-1.92h16.18c6.32,0,7.52,2.48,7.52,7.81Z"/>
    <path class="cls-1" d="m49.68,381.78c.99-.57,1.63-.21,1.63.99v3.76c0,1.42-.43,2.2-1.63,2.91l-18.03,10.57v7.95h17.74c1.35,0,1.92.57,1.92,1.92v3.48c0,1.35-.57,1.92-1.92,1.92H1.99c-1.35,0-1.92-.57-1.92-1.92v-24.91c0-5.32,1.21-7.81,7.52-7.81h16.54c6.32,0,7.52,2.48,7.52,7.81v3.97l18.03-10.64Zm-27.39,6.03h-12.77c-2.06,0-2.48.43-2.48,2.55v17.53h17.74v-17.53c0-2.27-.43-2.55-2.48-2.55Z"/>
    <path class="cls-1" d="m49.39,337.06c1.35,0,1.92.57,1.92,1.92v3.41c0,1.35-.57,1.92-1.92,1.92h-16.46v20.79h16.46c1.35,0,1.92.57,1.92,1.92v3.48c0,1.35-.57,1.92-1.92,1.92H7.59c-6.32,0-7.52-2.48-7.52-7.81v-19.73c0-5.32,1.21-7.81,7.52-7.81h41.8Zm-23.35,7.24H9.51c-2.06,0-2.48.43-2.48,2.55v15.68c0,2.13.43,2.55,2.48,2.55h16.54v-20.79Z"/>
    <path class="cls-1" d="m49.39,291.99c1.35,0,1.92.57,1.92,1.92v5.18c0,1.42-.5,2.2-1.77,2.84l-36.76,18.52h36.55c1.35,0,1.92.57,1.92,1.92v3.48c0,1.35-.57,1.92-1.92,1.92H1.92c-1.35,0-1.92-.57-1.92-1.92v-4.97c0-1.42.5-2.2,1.77-2.84l37.19-18.74H1.99c-1.35,0-1.92-.57-1.92-1.92v-3.48c0-1.35.57-1.92,1.92-1.92h47.41Z"/>
    <path class="cls-1" d="m49.39,265.31c1.35,0,1.92.57,1.92,1.92v3.48c0,1.35-.57,1.92-1.92,1.92H7.03v11.99c0,1.35-.57,1.92-1.92,1.92H1.99c-1.35,0-1.92-.57-1.92-1.92v-31.23c0-1.35.57-1.92,1.92-1.92h3.12c1.35,0,1.92.57,1.92,1.92v11.92h42.37Z"/>
    <path class="cls-1" d="m49.39,226.55c1.35,0,1.92.57,1.92,1.92v3.48c0,1.35-.57,1.92-1.92,1.92H1.99c-1.35,0-1.92-.57-1.92-1.92v-3.48c0-1.35.57-1.92,1.92-1.92h47.41Z"/>
    <path class="cls-1" d="m51.31,190.29v19.66c0,5.32-1.21,7.81-7.52,7.81h-5.82c-1.35,0-1.92-.57-1.92-1.92v-3.41c0-1.35.57-1.92,1.92-1.92h3.97c2.06,0,2.48-.43,2.48-2.56v-15.61c0-2.13-.43-2.56-2.48-2.56h-10.29c-2.06,0-2.48.43-2.48,2.56v17.67c0,5.32-1.21,7.81-7.52,7.81H7.59c-6.32,0-7.52-2.48-7.52-7.81v-19.66c0-5.32,1.21-7.81,7.52-7.81h5.82c1.35,0,1.92.57,1.92,1.92v3.48c0,1.35-.57,1.92-1.92,1.92h-3.9c-2.06,0-2.48.43-2.48,2.55v15.61c0,2.13.43,2.55,2.48,2.55h10.29c2.06,0,2.48-.43,2.48-2.55v-17.74c0-5.32,1.21-7.81,7.52-7.81h13.98c6.32,0,7.52,2.48,7.52,7.81Z"/>
    <path class="cls-1" d="m51.31,133.15v19.66c0,5.32-1.21,7.81-7.52,7.81h-5.82c-1.35,0-1.92-.57-1.92-1.92v-3.41c0-1.35.57-1.92,1.92-1.92h3.97c2.06,0,2.48-.43,2.48-2.55v-15.61c0-2.13-.43-2.55-2.48-2.55h-10.29c-2.06,0-2.48.43-2.48,2.55v17.67c0,5.32-1.21,7.81-7.52,7.81H7.59c-6.32,0-7.52-2.48-7.52-7.81v-19.66c0-5.32,1.21-7.81,7.52-7.81h5.82c1.35,0,1.92.57,1.92,1.92v3.48c0,1.35-.57,1.92-1.92,1.92h-3.9c-2.06,0-2.48.43-2.48,2.55v15.61c0,2.13.43,2.55,2.48,2.55h10.29c2.06,0,2.48-.43,2.48-2.55v-17.74c0-5.32,1.21-7.81,7.52-7.81h13.98c6.32,0,7.52,2.48,7.52,7.81Z"/>
    <path class="cls-1" d="m49.39,86.1c1.35,0,1.92.57,1.92,1.92v26.68c0,1.35-.57,1.92-1.92,1.92H1.99c-1.35,0-1.92-.57-1.92-1.92v-3.48c0-1.35.57-1.92,1.92-1.92h42.44v-21.29c0-1.35.57-1.92,1.92-1.92h3.05Z"/>
    <path class="cls-1" d="m49.39,45.43c1.35,0,1.92.57,1.92,1.92v3.41c0,1.35-.57,1.92-1.92,1.92h-16.46v20.79h16.46c1.35,0,1.92.57,1.92,1.92v3.48c0,1.35-.57,1.92-1.92,1.92H7.59c-6.32,0-7.52-2.48-7.52-7.81v-19.73c0-5.32,1.21-7.81,7.52-7.81h41.8Zm-23.35,7.24H9.51c-2.06,0-2.48.43-2.48,2.55v15.68c0,2.13.43,2.55,2.48,2.55h16.54v-20.79Z"/>
    <path class="cls-1" d="m49.39,15.2c1.35,0,1.92.57,1.92,1.92v3.48c0,1.35-.57,1.92-1.92,1.92h-19.3v7.45c0,5.32-1.21,7.81-7.52,7.81H1.99c-1.35,0-1.92-.57-1.92-1.92v-3.48c0-1.35.57-1.92,1.92-1.92h18.74c2.06,0,2.48-.43,2.48-2.55V10.09c0-2.27-.43-2.56-2.48-2.56H1.99C.64,7.53.07,6.96.07,5.61v-3.41C.07.86.64.29,1.99.29h20.58c6.32,0,7.52,2.48,7.52,7.81v7.1h19.3Z"/>
  </g>
  <g>
    <path class="cls-1" d="m112.87,431.59v20.44c0,5.32-1.21,7.81-7.52,7.81h-36.19c-6.32,0-7.52-2.48-7.52-7.81v-20.44c0-5.32,1.21-7.81,7.52-7.81h5.82c1.35,0,1.92.57,1.92,1.92v3.41c0,1.35-.57,1.92-1.92,1.92h-3.9c-2.06,0-2.48.43-2.48,2.55v16.39c0,2.13.43,2.55,2.48,2.55h32.43c2.06,0,2.48-.43,2.48-2.55v-16.39c0-2.27-.43-2.55-2.48-2.55h-9.3v8.66c0,1.35-.57,1.92-1.92,1.92h-3.12c-1.35,0-1.92-.57-1.92-1.92v-13.98c0-1.35.57-1.92,1.92-1.92h16.18c6.32,0,7.52,2.48,7.52,7.81Z"/>
    <path class="cls-1" d="m111.24,381.48c.99-.57,1.63-.21,1.63.99v3.76c0,1.42-.43,2.2-1.63,2.91l-18.03,10.57v7.95h17.74c1.35,0,1.92.57,1.92,1.92v3.48c0,1.35-.57,1.92-1.92,1.92h-47.41c-1.35,0-1.92-.57-1.92-1.92v-24.91c0-5.32,1.21-7.81,7.52-7.81h16.54c6.32,0,7.52,2.48,7.52,7.81v3.97l18.03-10.64Zm-27.39,6.03h-12.77c-2.06,0-2.48.43-2.48,2.55v17.53h17.74v-17.53c0-2.27-.43-2.55-2.48-2.55Z"/>
    <path class="cls-1" d="m110.96,336.77c1.35,0,1.92.57,1.92,1.92v3.41c0,1.35-.57,1.92-1.92,1.92h-16.46v20.79h16.46c1.35,0,1.92.57,1.92,1.92v3.48c0,1.35-.57,1.92-1.92,1.92h-41.8c-6.32,0-7.52-2.48-7.52-7.81v-19.73c0-5.32,1.21-7.81,7.52-7.81h41.8Zm-23.35,7.24h-16.54c-2.06,0-2.48.43-2.48,2.55v15.68c0,2.13.43,2.55,2.48,2.55h16.54v-20.79Z"/>
    <path class="cls-1" d="m110.96,291.7c1.35,0,1.92.57,1.92,1.92v5.18c0,1.42-.5,2.2-1.77,2.84l-36.76,18.52h36.55c1.35,0,1.92.57,1.92,1.92v3.48c0,1.35-.57,1.92-1.92,1.92h-47.41c-1.35,0-1.92-.57-1.92-1.92v-4.97c0-1.42.5-2.2,1.77-2.84l37.19-18.74h-36.97c-1.35,0-1.92-.57-1.92-1.92v-3.48c0-1.35.57-1.92,1.92-1.92h47.41Z"/>
    <path class="cls-1" d="m110.96,265.01c1.35,0,1.92.57,1.92,1.92v3.48c0,1.35-.57,1.92-1.92,1.92h-42.37v11.99c0,1.35-.57,1.92-1.92,1.92h-3.12c-1.35,0-1.92-.57-1.92-1.92v-31.23c0-1.35.57-1.92,1.92-1.92h3.12c1.35,0,1.92.57,1.92,1.92v11.92h42.37Z"/>
    <path class="cls-1" d="m110.96,226.26c1.35,0,1.92.57,1.92,1.92v3.48c0,1.35-.57,1.92-1.92,1.92h-47.41c-1.35,0-1.92-.57-1.92-1.92v-3.48c0-1.35.57-1.92,1.92-1.92h47.41Z"/>
    <path class="cls-1" d="m112.87,190v19.66c0,5.32-1.21,7.81-7.52,7.81h-5.82c-1.35,0-1.92-.57-1.92-1.92v-3.41c0-1.35.57-1.92,1.92-1.92h3.97c2.06,0,2.48-.43,2.48-2.55v-15.61c0-2.13-.43-2.55-2.48-2.55h-10.29c-2.06,0-2.48.43-2.48,2.55v17.67c0,5.32-1.21,7.81-7.52,7.81h-14.05c-6.32,0-7.52-2.48-7.52-7.81v-19.66c0-5.32,1.21-7.81,7.52-7.81h5.82c1.35,0,1.92.57,1.92,1.92v3.48c0,1.35-.57,1.92-1.92,1.92h-3.9c-2.06,0-2.48.43-2.48,2.55v15.61c0,2.13.43,2.55,2.48,2.55h10.29c2.06,0,2.48-.43,2.48-2.55v-17.74c0-5.32,1.21-7.81,7.52-7.81h13.98c6.32,0,7.52,2.48,7.52,7.81Z"/>
    <path class="cls-1" d="m112.87,132.86v19.66c0,5.32-1.21,7.81-7.52,7.81h-5.82c-1.35,0-1.92-.57-1.92-1.92v-3.41c0-1.35.57-1.92,1.92-1.92h3.97c2.06,0,2.48-.43,2.48-2.55v-15.61c0-2.13-.43-2.55-2.48-2.55h-10.29c-2.06,0-2.48.43-2.48,2.55v17.67c0,5.32-1.21,7.81-7.52,7.81h-14.05c-6.32,0-7.52-2.48-7.52-7.81v-19.66c0-5.32,1.21-7.81,7.52-7.81h5.82c1.35,0,1.92.57,1.92,1.92v3.48c0,1.35-.57,1.92-1.92,1.92h-3.9c-2.06,0-2.48.43-2.48,2.55v15.61c0,2.13.43,2.55,2.48,2.55h10.29c2.06,0,2.48-.43,2.48-2.55v-17.74c0-5.32,1.21-7.81,7.52-7.81h13.98c6.32,0,7.52,2.48,7.52,7.81Z"/>
    <path class="cls-1" d="m110.96,85.81c1.35,0,1.92.57,1.92,1.92v26.68c0,1.35-.57,1.92-1.92,1.92h-47.41c-1.35,0-1.92-.57-1.92-1.92v-3.48c0-1.35.57-1.92,1.92-1.92h42.44v-21.29c0-1.35.57-1.92,1.92-1.92h3.05Z"/>
    <path class="cls-1" d="m110.96,45.14c1.35,0,1.92.57,1.92,1.92v3.41c0,1.35-.57,1.92-1.92,1.92h-16.46v20.79h16.46c1.35,0,1.92.57,1.92,1.92v3.48c0,1.35-.57,1.92-1.92,1.92h-41.8c-6.32,0-7.52-2.48-7.52-7.81v-19.73c0-5.32,1.21-7.81,7.52-7.81h41.8Zm-23.35,7.24h-16.54c-2.06,0-2.48.43-2.48,2.55v15.68c0,2.13.43,2.55,2.48,2.55h16.54v-20.79Z"/>
    <path class="cls-1" d="m110.96,14.9c1.35,0,1.92.57,1.92,1.92v3.48c0,1.35-.57,1.92-1.92,1.92h-19.3v7.45c0,5.32-1.21,7.81-7.52,7.81h-20.58c-1.35,0-1.92-.57-1.92-1.92v-3.48c0-1.35.57-1.92,1.92-1.92h18.74c2.06,0,2.48-.43,2.48-2.55V9.79c0-2.27-.43-2.56-2.48-2.56h-18.74c-1.35,0-1.92-.57-1.92-1.92V1.92c0-1.35.57-1.92,1.92-1.92h20.58c6.32,0,7.52,2.48,7.52,7.81v7.1h19.3Z"/>
  </g>
  <g>
    <path class="cls-1" d="m173.21,432.96v20.44c0,5.32-1.21,7.81-7.52,7.81h-36.19c-6.32,0-7.52-2.48-7.52-7.81v-20.44c0-5.32,1.21-7.81,7.52-7.81h5.82c1.35,0,1.92.57,1.92,1.92v3.41c0,1.35-.57,1.92-1.92,1.92h-3.9c-2.06,0-2.48.43-2.48,2.55v16.39c0,2.13.43,2.55,2.48,2.55h32.43c2.06,0,2.48-.43,2.48-2.55v-16.39c0-2.27-.43-2.55-2.48-2.55h-9.3v8.66c0,1.35-.57,1.92-1.92,1.92h-3.12c-1.35,0-1.92-.57-1.92-1.92v-13.98c0-1.35.57-1.92,1.92-1.92h16.18c6.32,0,7.52,2.48,7.52,7.81Z"/>
    <path class="cls-1" d="m171.58,382.86c.99-.57,1.63-.21,1.63.99v3.76c0,1.42-.43,2.2-1.63,2.91l-18.03,10.57v7.95h17.74c1.35,0,1.92.57,1.92,1.92v3.48c0,1.35-.57,1.92-1.92,1.92h-47.41c-1.35,0-1.92-.57-1.92-1.92v-24.91c0-5.32,1.21-7.81,7.52-7.81h16.54c6.32,0,7.52,2.48,7.52,7.81v3.97l18.03-10.64Zm-27.39,6.03h-12.77c-2.06,0-2.48.43-2.48,2.55v17.53h17.74v-17.53c0-2.27-.43-2.55-2.48-2.55Z"/>
    <path class="cls-1" d="m171.3,338.14c1.35,0,1.92.57,1.92,1.92v3.41c0,1.35-.57,1.92-1.92,1.92h-16.46v20.79h16.46c1.35,0,1.92.57,1.92,1.92v3.48c0,1.35-.57,1.92-1.92,1.92h-41.8c-6.32,0-7.52-2.48-7.52-7.81v-19.73c0-5.32,1.21-7.81,7.52-7.81h41.8Zm-23.35,7.24h-16.54c-2.06,0-2.48.43-2.48,2.55v15.68c0,2.13.43,2.55,2.48,2.55h16.54v-20.79Z"/>
    <path class="cls-1" d="m171.3,293.08c1.35,0,1.92.57,1.92,1.92v5.18c0,1.42-.5,2.2-1.77,2.84l-36.76,18.52h36.55c1.35,0,1.92.57,1.92,1.92v3.48c0,1.35-.57,1.92-1.92,1.92h-47.41c-1.35,0-1.92-.57-1.92-1.92v-4.97c0-1.42.5-2.2,1.77-2.84l37.19-18.74h-36.97c-1.35,0-1.92-.57-1.92-1.92v-3.48c0-1.35.57-1.92,1.92-1.92h47.41Z"/>
    <path class="cls-1" d="m171.3,266.39c1.35,0,1.92.57,1.92,1.92v3.48c0,1.35-.57,1.92-1.92,1.92h-42.37v11.99c0,1.35-.57,1.92-1.92,1.92h-3.12c-1.35,0-1.92-.57-1.92-1.92v-31.23c0-1.35.57-1.92,1.92-1.92h3.12c1.35,0,1.92.57,1.92,1.92v11.92h42.37Z"/>
    <path class="cls-1" d="m171.3,227.64c1.35,0,1.92.57,1.92,1.92v3.48c0,1.35-.57,1.92-1.92,1.92h-47.41c-1.35,0-1.92-.57-1.92-1.92v-3.48c0-1.35.57-1.92,1.92-1.92h47.41Z"/>
    <path class="cls-1" d="m173.21,191.37v19.66c0,5.32-1.21,7.81-7.52,7.81h-5.82c-1.35,0-1.92-.57-1.92-1.92v-3.41c0-1.35.57-1.92,1.92-1.92h3.97c2.06,0,2.48-.43,2.48-2.56v-15.61c0-2.13-.43-2.56-2.48-2.56h-10.29c-2.06,0-2.48.43-2.48,2.56v17.67c0,5.32-1.21,7.81-7.52,7.81h-14.05c-6.32,0-7.52-2.48-7.52-7.81v-19.66c0-5.32,1.21-7.81,7.52-7.81h5.82c1.35,0,1.92.57,1.92,1.92v3.48c0,1.35-.57,1.92-1.92,1.92h-3.9c-2.06,0-2.48.43-2.48,2.55v15.61c0,2.13.43,2.55,2.48,2.55h10.29c2.06,0,2.48-.43,2.48-2.55v-17.74c0-5.32,1.21-7.81,7.52-7.81h13.98c6.32,0,7.52,2.48,7.52,7.81Z"/>
    <path class="cls-1" d="m173.21,134.24v19.66c0,5.32-1.21,7.81-7.52,7.81h-5.82c-1.35,0-1.92-.57-1.92-1.92v-3.41c0-1.35.57-1.92,1.92-1.92h3.97c2.06,0,2.48-.43,2.48-2.55v-15.61c0-2.13-.43-2.55-2.48-2.55h-10.29c-2.06,0-2.48.43-2.48,2.55v17.67c0,5.32-1.21,7.81-7.52,7.81h-14.05c-6.32,0-7.52-2.48-7.52-7.81v-19.66c0-5.32,1.21-7.81,7.52-7.81h5.82c1.35,0,1.92.57,1.92,1.92v3.48c0,1.35-.57,1.92-1.92,1.92h-3.9c-2.06,0-2.48.43-2.48,2.55v15.61c0,2.13.43,2.55,2.48,2.55h10.29c2.06,0,2.48-.43,2.48-2.55v-17.74c0-5.32,1.21-7.81,7.52-7.81h13.98c6.32,0,7.52,2.48,7.52,7.81Z"/>
    <path class="cls-1" d="m171.3,87.18c1.35,0,1.92.57,1.92,1.92v26.68c0,1.35-.57,1.92-1.92,1.92h-47.41c-1.35,0-1.92-.57-1.92-1.92v-3.48c0-1.35.57-1.92,1.92-1.92h42.44v-21.29c0-1.35.57-1.92,1.92-1.92h3.05Z"/>
    <path class="cls-1" d="m171.3,46.51c1.35,0,1.92.57,1.92,1.92v3.41c0,1.35-.57,1.92-1.92,1.92h-16.46v20.79h16.46c1.35,0,1.92.57,1.92,1.92v3.48c0,1.35-.57,1.92-1.92,1.92h-41.8c-6.32,0-7.52-2.48-7.52-7.81v-19.73c0-5.32,1.21-7.81,7.52-7.81h41.8Zm-23.35,7.24h-16.54c-2.06,0-2.48.43-2.48,2.55v15.68c0,2.13.43,2.55,2.48,2.55h16.54v-20.79Z"/>
    <path class="cls-1" d="m171.3,16.28c1.35,0,1.92.57,1.92,1.92v3.48c0,1.35-.57,1.92-1.92,1.92h-19.3v7.45c0,5.32-1.21,7.81-7.52,7.81h-20.58c-1.35,0-1.92-.57-1.92-1.92v-3.48c0-1.35.57-1.92,1.92-1.92h18.74c2.06,0,2.48-.43,2.48-2.55V11.17c0-2.27-.43-2.56-2.48-2.56h-18.74c-1.35,0-1.92-.57-1.92-1.92v-3.41c0-1.35.57-1.92,1.92-1.92h20.58c6.32,0,7.52,2.48,7.52,7.81v7.1h19.3Z"/>
  </g>
  <g>
    <path class="cls-1" d="m234.78,432.67v20.44c0,5.32-1.21,7.81-7.52,7.81h-36.19c-6.32,0-7.52-2.48-7.52-7.81v-20.44c0-5.32,1.21-7.81,7.52-7.81h5.82c1.35,0,1.92.57,1.92,1.92v3.41c0,1.35-.57,1.92-1.92,1.92h-3.9c-2.06,0-2.48.43-2.48,2.55v16.39c0,2.13.43,2.55,2.48,2.55h32.43c2.06,0,2.48-.43,2.48-2.55v-16.39c0-2.27-.43-2.55-2.48-2.55h-9.3v8.66c0,1.35-.57,1.92-1.92,1.92h-3.12c-1.35,0-1.92-.57-1.92-1.92v-13.98c0-1.35.57-1.92,1.92-1.92h16.18c6.32,0,7.52,2.48,7.52,7.81Z"/>
    <path class="cls-1" d="m233.15,382.57c.99-.57,1.63-.21,1.63.99v3.76c0,1.42-.43,2.2-1.63,2.91l-18.03,10.57v7.95h17.74c1.35,0,1.92.57,1.92,1.92v3.48c0,1.35-.57,1.92-1.92,1.92h-47.41c-1.35,0-1.92-.57-1.92-1.92v-24.91c0-5.32,1.21-7.81,7.52-7.81h16.54c6.32,0,7.52,2.48,7.52,7.81v3.97l18.03-10.64Zm-27.39,6.03h-12.77c-2.06,0-2.48.43-2.48,2.55v17.53h17.74v-17.53c0-2.27-.43-2.55-2.48-2.55Z"/>
    <path class="cls-1" d="m232.86,337.85c1.35,0,1.92.57,1.92,1.92v3.41c0,1.35-.57,1.92-1.92,1.92h-16.46v20.79h16.46c1.35,0,1.92.57,1.92,1.92v3.48c0,1.35-.57,1.92-1.92,1.92h-41.8c-6.32,0-7.52-2.48-7.52-7.81v-19.73c0-5.32,1.21-7.81,7.52-7.81h41.8Zm-23.35,7.24h-16.54c-2.06,0-2.48.43-2.48,2.55v15.68c0,2.13.43,2.55,2.48,2.55h16.54v-20.79Z"/>
    <path class="cls-1" d="m232.86,292.78c1.35,0,1.92.57,1.92,1.92v5.18c0,1.42-.5,2.2-1.77,2.84l-36.76,18.52h36.55c1.35,0,1.92.57,1.92,1.92v3.48c0,1.35-.57,1.92-1.92,1.92h-47.41c-1.35,0-1.92-.57-1.92-1.92v-4.97c0-1.42.5-2.2,1.77-2.84l37.19-18.74h-36.97c-1.35,0-1.92-.57-1.92-1.92v-3.48c0-1.35.57-1.92,1.92-1.92h47.41Z"/>
    <path class="cls-1" d="m232.86,266.1c1.35,0,1.92.57,1.92,1.92v3.48c0,1.35-.57,1.92-1.92,1.92h-42.37v11.99c0,1.35-.57,1.92-1.92,1.92h-3.12c-1.35,0-1.92-.57-1.92-1.92v-31.23c0-1.35.57-1.92,1.92-1.92h3.12c1.35,0,1.92.57,1.92,1.92v11.92h42.37Z"/>
    <path class="cls-1" d="m232.86,227.34c1.35,0,1.92.57,1.92,1.92v3.48c0,1.35-.57,1.92-1.92,1.92h-47.41c-1.35,0-1.92-.57-1.92-1.92v-3.48c0-1.35.57-1.92,1.92-1.92h47.41Z"/>
    <path class="cls-1" d="m234.78,191.08v19.66c0,5.32-1.21,7.81-7.52,7.81h-5.82c-1.35,0-1.92-.57-1.92-1.92v-3.41c0-1.35.57-1.92,1.92-1.92h3.97c2.06,0,2.48-.43,2.48-2.55v-15.61c0-2.13-.43-2.55-2.48-2.55h-10.29c-2.06,0-2.48.43-2.48,2.55v17.67c0,5.32-1.21,7.81-7.52,7.81h-14.05c-6.32,0-7.52-2.48-7.52-7.81v-19.66c0-5.32,1.21-7.81,7.52-7.81h5.82c1.35,0,1.92.57,1.92,1.92v3.48c0,1.35-.57,1.92-1.92,1.92h-3.9c-2.06,0-2.48.43-2.48,2.55v15.61c0,2.13.43,2.55,2.48,2.55h10.29c2.06,0,2.48-.43,2.48-2.55v-17.74c0-5.32,1.21-7.81,7.52-7.81h13.98c6.32,0,7.52,2.48,7.52,7.81Z"/>
    <path class="cls-1" d="m234.78,133.94v19.66c0,5.32-1.21,7.81-7.52,7.81h-5.82c-1.35,0-1.92-.57-1.92-1.92v-3.41c0-1.35.57-1.92,1.92-1.92h3.97c2.06,0,2.48-.43,2.48-2.55v-15.61c0-2.13-.43-2.55-2.48-2.55h-10.29c-2.06,0-2.48.43-2.48,2.55v17.67c0,5.32-1.21,7.81-7.52,7.81h-14.05c-6.32,0-7.52-2.48-7.52-7.81v-19.66c0-5.32,1.21-7.81,7.52-7.81h5.82c1.35,0,1.92.57,1.92,1.92v3.48c0,1.35-.57,1.92-1.92,1.92h-3.9c-2.06,0-2.48.43-2.48,2.55v15.61c0,2.13.43,2.55,2.48,2.55h10.29c2.06,0,2.48-.43,2.48-2.55v-17.74c0-5.32,1.21-7.81,7.52-7.81h13.98c6.32,0,7.52,2.48,7.52,7.81Z"/>
    <path class="cls-1" d="m232.86,86.89c1.35,0,1.92.57,1.92,1.92v26.68c0,1.35-.57,1.92-1.92,1.92h-47.41c-1.35,0-1.92-.57-1.92-1.92v-3.48c0-1.35.57-1.92,1.92-1.92h42.44v-21.29c0-1.35.57-1.92,1.92-1.92h3.05Z"/>
    <path class="cls-1" d="m232.86,46.22c1.35,0,1.92.57,1.92,1.92v3.41c0,1.35-.57,1.92-1.92,1.92h-16.46v20.79h16.46c1.35,0,1.92.57,1.92,1.92v3.48c0,1.35-.57,1.92-1.92,1.92h-41.8c-6.32,0-7.52-2.48-7.52-7.81v-19.73c0-5.32,1.21-7.81,7.52-7.81h41.8Zm-23.35,7.24h-16.54c-2.06,0-2.48.43-2.48,2.55v15.68c0,2.13.43,2.55,2.48,2.55h16.54v-20.79Z"/>
    <path class="cls-1" d="m232.86,15.99c1.35,0,1.92.57,1.92,1.92v3.48c0,1.35-.57,1.92-1.92,1.92h-19.3v7.45c0,5.32-1.21,7.81-7.52,7.81h-20.58c-1.35,0-1.92-.57-1.92-1.92v-3.48c0-1.35.57-1.92,1.92-1.92h18.74c2.06,0,2.48-.43,2.48-2.55V10.88c0-2.27-.43-2.56-2.48-2.56h-18.74c-1.35,0-1.92-.57-1.92-1.92v-3.41c0-1.35.57-1.92,1.92-1.92h20.58c6.32,0,7.52,2.48,7.52,7.81v7.1h19.3Z"/>
  </g>
  <g>
    <path class="cls-1" d="m296.34,433.63v20.44c0,5.32-1.21,7.81-7.52,7.81h-36.19c-6.32,0-7.52-2.48-7.52-7.81v-20.44c0-5.32,1.21-7.81,7.52-7.81h5.82c1.35,0,1.92.57,1.92,1.92v3.41c0,1.35-.57,1.92-1.92,1.92h-3.9c-2.06,0-2.48.43-2.48,2.55v16.39c0,2.13.43,2.55,2.48,2.55h32.43c2.06,0,2.48-.43,2.48-2.55v-16.39c0-2.27-.43-2.55-2.48-2.55h-9.3v8.66c0,1.35-.57,1.92-1.92,1.92h-3.12c-1.35,0-1.92-.57-1.92-1.92v-13.98c0-1.35.57-1.92,1.92-1.92h16.18c6.32,0,7.52,2.48,7.52,7.81Z"/>
    <path class="cls-1" d="m294.71,383.52c.99-.57,1.63-.21,1.63.99v3.76c0,1.42-.43,2.2-1.63,2.91l-18.03,10.57v7.95h17.74c1.35,0,1.92.57,1.92,1.92v3.48c0,1.35-.57,1.92-1.92,1.92h-47.41c-1.35,0-1.92-.57-1.92-1.92v-24.91c0-5.32,1.21-7.81,7.52-7.81h16.54c6.32,0,7.52,2.48,7.52,7.81v3.97l18.03-10.64Zm-27.39,6.03h-12.77c-2.06,0-2.48.43-2.48,2.55v17.53h17.74v-17.53c0-2.27-.43-2.55-2.48-2.55Z"/>
    <path class="cls-1" d="m294.42,338.81c1.35,0,1.92.57,1.92,1.92v3.41c0,1.35-.57,1.92-1.92,1.92h-16.46v20.79h16.46c1.35,0,1.92.57,1.92,1.92v3.48c0,1.35-.57,1.92-1.92,1.92h-41.8c-6.32,0-7.52-2.48-7.52-7.81v-19.73c0-5.32,1.21-7.81,7.52-7.81h41.8Zm-23.35,7.24h-16.54c-2.06,0-2.48.43-2.48,2.55v15.68c0,2.13.43,2.55,2.48,2.55h16.54v-20.79Z"/>
    <path class="cls-1" d="m294.42,293.74c1.35,0,1.92.57,1.92,1.92v5.18c0,1.42-.5,2.2-1.77,2.84l-36.76,18.52h36.55c1.35,0,1.92.57,1.92,1.92v3.48c0,1.35-.57,1.92-1.92,1.92h-47.41c-1.35,0-1.92-.57-1.92-1.92v-4.97c0-1.42.5-2.2,1.77-2.84l37.19-18.74h-36.97c-1.35,0-1.92-.57-1.92-1.92v-3.48c0-1.35.57-1.92,1.92-1.92h47.41Z"/>
    <path class="cls-1" d="m294.42,267.05c1.35,0,1.92.57,1.92,1.92v3.48c0,1.35-.57,1.92-1.92,1.92h-42.37v11.99c0,1.35-.57,1.92-1.92,1.92h-3.12c-1.35,0-1.92-.57-1.92-1.92v-31.23c0-1.35.57-1.92,1.92-1.92h3.12c1.35,0,1.92.57,1.92,1.92v11.92h42.37Z"/>
    <path class="cls-1" d="m294.42,228.3c1.35,0,1.92.57,1.92,1.92v3.48c0,1.35-.57,1.92-1.92,1.92h-47.41c-1.35,0-1.92-.57-1.92-1.92v-3.48c0-1.35.57-1.92,1.92-1.92h47.41Z"/>
    <path class="cls-1" d="m296.34,192.04v19.66c0,5.32-1.21,7.81-7.52,7.81h-5.82c-1.35,0-1.92-.57-1.92-1.92v-3.41c0-1.35.57-1.92,1.92-1.92h3.97c2.06,0,2.48-.43,2.48-2.55v-15.61c0-2.13-.43-2.55-2.48-2.55h-10.29c-2.06,0-2.48.43-2.48,2.55v17.67c0,5.32-1.21,7.81-7.52,7.81h-14.05c-6.32,0-7.52-2.48-7.52-7.81v-19.66c0-5.32,1.21-7.81,7.52-7.81h5.82c1.35,0,1.92.57,1.92,1.92v3.48c0,1.35-.57,1.92-1.92,1.92h-3.9c-2.06,0-2.48.43-2.48,2.55v15.61c0,2.13.43,2.55,2.48,2.55h10.29c2.06,0,2.48-.43,2.48-2.55v-17.74c0-5.32,1.21-7.81,7.52-7.81h13.98c6.32,0,7.52,2.48,7.52,7.81Z"/>
    <path class="cls-1" d="m296.34,134.9v19.66c0,5.32-1.21,7.81-7.52,7.81h-5.82c-1.35,0-1.92-.57-1.92-1.92v-3.41c0-1.35.57-1.92,1.92-1.92h3.97c2.06,0,2.48-.43,2.48-2.55v-15.61c0-2.13-.43-2.55-2.48-2.55h-10.29c-2.06,0-2.48.43-2.48,2.55v17.67c0,5.32-1.21,7.81-7.52,7.81h-14.05c-6.32,0-7.52-2.48-7.52-7.81v-19.66c0-5.32,1.21-7.81,7.52-7.81h5.82c1.35,0,1.92.57,1.92,1.92v3.48c0,1.35-.57,1.92-1.92,1.92h-3.9c-2.06,0-2.48.43-2.48,2.55v15.61c0,2.13.43,2.55,2.48,2.55h10.29c2.06,0,2.48-.43,2.48-2.55v-17.74c0-5.32,1.21-7.81,7.52-7.81h13.98c6.32,0,7.52,2.48,7.52,7.81Z"/>
    <path class="cls-1" d="m294.42,87.85c1.35,0,1.92.57,1.92,1.92v26.68c0,1.35-.57,1.92-1.92,1.92h-47.41c-1.35,0-1.92-.57-1.92-1.92v-3.48c0-1.35.57-1.92,1.92-1.92h42.44v-21.29c0-1.35.57-1.92,1.92-1.92h3.05Z"/>
    <path class="cls-1" d="m294.42,47.18c1.35,0,1.92.57,1.92,1.92v3.41c0,1.35-.57,1.92-1.92,1.92h-16.46v20.79h16.46c1.35,0,1.92.57,1.92,1.92v3.48c0,1.35-.57,1.92-1.92,1.92h-41.8c-6.32,0-7.52-2.48-7.52-7.81v-19.73c0-5.32,1.21-7.81,7.52-7.81h41.8Zm-23.35,7.24h-16.54c-2.06,0-2.48.43-2.48,2.55v15.68c0,2.13.43,2.55,2.48,2.55h16.54v-20.79Z"/>
    <path class="cls-1" d="m294.42,16.94c1.35,0,1.92.57,1.92,1.92v3.48c0,1.35-.57,1.92-1.92,1.92h-19.3v7.45c0,5.32-1.21,7.81-7.52,7.81h-20.58c-1.35,0-1.92-.57-1.92-1.92v-3.48c0-1.35.57-1.92,1.92-1.92h18.74c2.06,0,2.48-.43,2.48-2.55V11.83c0-2.27-.43-2.56-2.48-2.56h-18.74c-1.35,0-1.92-.57-1.92-1.92v-3.41c0-1.35.57-1.92,1.92-1.92h20.58c6.32,0,7.52,2.48,7.52,7.81v7.1h19.3Z"/>
  </g>
  <g>
    <path class="cls-1" d="m357.9,433.34v20.44c0,5.32-1.21,7.81-7.52,7.81h-36.19c-6.32,0-7.52-2.48-7.52-7.81v-20.44c0-5.32,1.21-7.81,7.52-7.81h5.82c1.35,0,1.92.57,1.92,1.92v3.41c0,1.35-.57,1.92-1.92,1.92h-3.9c-2.06,0-2.48.43-2.48,2.55v16.39c0,2.13.43,2.55,2.48,2.55h32.43c2.06,0,2.48-.43,2.48-2.55v-16.39c0-2.27-.43-2.55-2.48-2.55h-9.3v8.66c0,1.35-.57,1.92-1.92,1.92h-3.12c-1.35,0-1.92-.57-1.92-1.92v-13.98c0-1.35.57-1.92,1.92-1.92h16.18c6.32,0,7.52,2.48,7.52,7.81Z"/>
    <path class="cls-1" d="m356.27,383.23c.99-.57,1.63-.21,1.63.99v3.76c0,1.42-.43,2.2-1.63,2.91l-18.03,10.57v7.95h17.74c1.35,0,1.92.57,1.92,1.92v3.48c0,1.35-.57,1.92-1.92,1.92h-47.41c-1.35,0-1.92-.57-1.92-1.92v-24.91c0-5.32,1.21-7.81,7.52-7.81h16.54c6.32,0,7.52,2.48,7.52,7.81v3.97l18.03-10.64Zm-27.39,6.03h-12.77c-2.06,0-2.48.43-2.48,2.55v17.53h17.74v-17.53c0-2.27-.43-2.55-2.48-2.55Z"/>
    <path class="cls-1" d="m355.99,338.52c1.35,0,1.92.57,1.92,1.92v3.41c0,1.35-.57,1.92-1.92,1.92h-16.46v20.79h16.46c1.35,0,1.92.57,1.92,1.92v3.48c0,1.35-.57,1.92-1.92,1.92h-41.8c-6.32,0-7.52-2.48-7.52-7.81v-19.73c0-5.32,1.21-7.81,7.52-7.81h41.8Zm-23.35,7.24h-16.54c-2.06,0-2.48.43-2.48,2.55v15.68c0,2.13.43,2.55,2.48,2.55h16.54v-20.79Z"/>
    <path class="cls-1" d="m355.99,293.45c1.35,0,1.92.57,1.92,1.92v5.18c0,1.42-.5,2.2-1.77,2.84l-36.76,18.52h36.55c1.35,0,1.92.57,1.92,1.92v3.48c0,1.35-.57,1.92-1.92,1.92h-47.41c-1.35,0-1.92-.57-1.92-1.92v-4.97c0-1.42.5-2.2,1.77-2.84l37.19-18.74h-36.97c-1.35,0-1.92-.57-1.92-1.92v-3.48c0-1.35.57-1.92,1.92-1.92h47.41Z"/>
    <path class="cls-1" d="m355.99,266.76c1.35,0,1.92.57,1.92,1.92v3.48c0,1.35-.57,1.92-1.92,1.92h-42.37v11.99c0,1.35-.57,1.92-1.92,1.92h-3.12c-1.35,0-1.92-.57-1.92-1.92v-31.23c0-1.35.57-1.92,1.92-1.92h3.12c1.35,0,1.92.57,1.92,1.92v11.92h42.37Z"/>
    <path class="cls-1" d="m355.99,228.01c1.35,0,1.92.57,1.92,1.92v3.48c0,1.35-.57,1.92-1.92,1.92h-47.41c-1.35,0-1.92-.57-1.92-1.92v-3.48c0-1.35.57-1.92,1.92-1.92h47.41Z"/>
    <path class="cls-1" d="m357.9,191.74v19.66c0,5.32-1.21,7.81-7.52,7.81h-5.82c-1.35,0-1.92-.57-1.92-1.92v-3.41c0-1.35.57-1.92,1.92-1.92h3.97c2.06,0,2.48-.43,2.48-2.55v-15.61c0-2.13-.43-2.55-2.48-2.55h-10.29c-2.06,0-2.48.43-2.48,2.55v17.67c0,5.32-1.21,7.81-7.52,7.81h-14.05c-6.32,0-7.52-2.48-7.52-7.81v-19.66c0-5.32,1.21-7.81,7.52-7.81h5.82c1.35,0,1.92.57,1.92,1.92v3.48c0,1.35-.57,1.92-1.92,1.92h-3.9c-2.06,0-2.48.43-2.48,2.55v15.61c0,2.13.43,2.55,2.48,2.55h10.29c2.06,0,2.48-.43,2.48-2.55v-17.74c0-5.32,1.21-7.81,7.52-7.81h13.98c6.32,0,7.52,2.48,7.52,7.81Z"/>
    <path class="cls-1" d="m357.9,134.61v19.66c0,5.32-1.21,7.81-7.52,7.81h-5.82c-1.35,0-1.92-.57-1.92-1.92v-3.41c0-1.35.57-1.92,1.92-1.92h3.97c2.06,0,2.48-.43,2.48-2.55v-15.61c0-2.13-.43-2.55-2.48-2.55h-10.29c-2.06,0-2.48.43-2.48,2.55v17.67c0,5.32-1.21,7.81-7.52,7.81h-14.05c-6.32,0-7.52-2.48-7.52-7.81v-19.66c0-5.32,1.21-7.81,7.52-7.81h5.82c1.35,0,1.92.57,1.92,1.92v3.48c0,1.35-.57,1.92-1.92,1.92h-3.9c-2.06,0-2.48.43-2.48,2.55v15.61c0,2.13.43,2.55,2.48,2.55h10.29c2.06,0,2.48-.43,2.48-2.55v-17.74c0-5.32,1.21-7.81,7.52-7.81h13.98c6.32,0,7.52,2.48,7.52,7.81Z"/>
    <path class="cls-1" d="m355.99,87.55c1.35,0,1.92.57,1.92,1.92v26.68c0,1.35-.57,1.92-1.92,1.92h-47.41c-1.35,0-1.92-.57-1.92-1.92v-3.48c0-1.35.57-1.92,1.92-1.92h42.44v-21.29c0-1.35.57-1.92,1.92-1.92h3.05Z"/>
    <path class="cls-1" d="m355.99,46.89c1.35,0,1.92.57,1.92,1.92v3.41c0,1.35-.57,1.92-1.92,1.92h-16.46v20.79h16.46c1.35,0,1.92.57,1.92,1.92v3.48c0,1.35-.57,1.92-1.92,1.92h-41.8c-6.32,0-7.52-2.48-7.52-7.81v-19.73c0-5.32,1.21-7.81,7.52-7.81h41.8Zm-23.35,7.24h-16.54c-2.06,0-2.48.43-2.48,2.55v15.68c0,2.13.43,2.55,2.48,2.55h16.54v-20.79Z"/>
    <path class="cls-1" d="m355.99,16.65c1.35,0,1.92.57,1.92,1.92v3.48c0,1.35-.57,1.92-1.92,1.92h-19.3v7.45c0,5.32-1.21,7.81-7.52,7.81h-20.58c-1.35,0-1.92-.57-1.92-1.92v-3.48c0-1.35.57-1.92,1.92-1.92h18.74c2.06,0,2.48-.43,2.48-2.55V11.54c0-2.27-.43-2.56-2.48-2.56h-18.74c-1.35,0-1.92-.57-1.92-1.92v-3.41c0-1.35.57-1.92,1.92-1.92h20.58c6.32,0,7.52,2.48,7.52,7.81v7.1h19.3Z"/>
  </g>
  <g>
    <path class="cls-1" d="m418.24,434.71v20.44c0,5.32-1.21,7.81-7.52,7.81h-36.19c-6.32,0-7.52-2.48-7.52-7.81v-20.44c0-5.32,1.21-7.81,7.52-7.81h5.82c1.35,0,1.92.57,1.92,1.92v3.41c0,1.35-.57,1.92-1.92,1.92h-3.9c-2.06,0-2.48.43-2.48,2.55v16.39c0,2.13.43,2.55,2.48,2.55h32.43c2.06,0,2.48-.43,2.48-2.55v-16.39c0-2.27-.43-2.55-2.48-2.55h-9.3v8.66c0,1.35-.57,1.92-1.92,1.92h-3.12c-1.35,0-1.92-.57-1.92-1.92v-13.98c0-1.35.57-1.92,1.92-1.92h16.18c6.32,0,7.52,2.48,7.52,7.81Z"/>
    <path class="cls-1" d="m416.61,384.61c.99-.57,1.63-.21,1.63.99v3.76c0,1.42-.43,2.2-1.63,2.91l-18.03,10.57v7.95h17.74c1.35,0,1.92.57,1.92,1.92v3.48c0,1.35-.57,1.92-1.92,1.92h-47.41c-1.35,0-1.92-.57-1.92-1.92v-24.91c0-5.32,1.21-7.81,7.52-7.81h16.54c6.32,0,7.52,2.48,7.52,7.81v3.97l18.03-10.64Zm-27.39,6.03h-12.77c-2.06,0-2.48.43-2.48,2.55v17.53h17.74v-17.53c0-2.27-.43-2.55-2.48-2.55Z"/>
    <path class="cls-1" d="m416.33,339.89c1.35,0,1.92.57,1.92,1.92v3.41c0,1.35-.57,1.92-1.92,1.92h-16.46v20.79h16.46c1.35,0,1.92.57,1.92,1.92v3.48c0,1.35-.57,1.92-1.92,1.92h-41.8c-6.32,0-7.52-2.48-7.52-7.81v-19.73c0-5.32,1.21-7.81,7.52-7.81h41.8Zm-23.35,7.24h-16.54c-2.06,0-2.48.43-2.48,2.55v15.68c0,2.13.43,2.55,2.48,2.55h16.54v-20.79Z"/>
    <path class="cls-1" d="m416.33,294.82c1.35,0,1.92.57,1.92,1.92v5.18c0,1.42-.5,2.2-1.77,2.84l-36.76,18.52h36.55c1.35,0,1.92.57,1.92,1.92v3.48c0,1.35-.57,1.92-1.92,1.92h-47.41c-1.35,0-1.92-.57-1.92-1.92v-4.97c0-1.42.5-2.2,1.77-2.84l37.19-18.74h-36.97c-1.35,0-1.92-.57-1.92-1.92v-3.48c0-1.35.57-1.92,1.92-1.92h47.41Z"/>
    <path class="cls-1" d="m416.33,268.14c1.35,0,1.92.57,1.92,1.92v3.48c0,1.35-.57,1.92-1.92,1.92h-42.37v11.99c0,1.35-.57,1.92-1.92,1.92h-3.12c-1.35,0-1.92-.57-1.92-1.92v-31.23c0-1.35.57-1.92,1.92-1.92h3.12c1.35,0,1.92.57,1.92,1.92v11.92h42.37Z"/>
    <path class="cls-1" d="m416.33,229.38c1.35,0,1.92.57,1.92,1.92v3.48c0,1.35-.57,1.92-1.92,1.92h-47.41c-1.35,0-1.92-.57-1.92-1.92v-3.48c0-1.35.57-1.92,1.92-1.92h47.41Z"/>
    <path class="cls-1" d="m418.24,193.12v19.66c0,5.32-1.21,7.81-7.52,7.81h-5.82c-1.35,0-1.92-.57-1.92-1.92v-3.41c0-1.35.57-1.92,1.92-1.92h3.97c2.06,0,2.48-.43,2.48-2.55v-15.61c0-2.13-.43-2.55-2.48-2.55h-10.29c-2.06,0-2.48.43-2.48,2.55v17.67c0,5.32-1.21,7.81-7.52,7.81h-14.05c-6.32,0-7.52-2.48-7.52-7.81v-19.66c0-5.32,1.21-7.81,7.52-7.81h5.82c1.35,0,1.92.57,1.92,1.92v3.48c0,1.35-.57,1.92-1.92,1.92h-3.9c-2.06,0-2.48.43-2.48,2.55v15.61c0,2.13.43,2.55,2.48,2.55h10.29c2.06,0,2.48-.43,2.48-2.55v-17.74c0-5.32,1.21-7.81,7.52-7.81h13.98c6.32,0,7.52,2.48,7.52,7.81Z"/>
    <path class="cls-1" d="m418.24,135.98v19.66c0,5.32-1.21,7.81-7.52,7.81h-5.82c-1.35,0-1.92-.57-1.92-1.92v-3.41c0-1.35.57-1.92,1.92-1.92h3.97c2.06,0,2.48-.43,2.48-2.55v-15.61c0-2.13-.43-2.55-2.48-2.55h-10.29c-2.06,0-2.48.43-2.48,2.55v17.67c0,5.32-1.21,7.81-7.52,7.81h-14.05c-6.32,0-7.52-2.48-7.52-7.81v-19.66c0-5.32,1.21-7.81,7.52-7.81h5.82c1.35,0,1.92.57,1.92,1.92v3.48c0,1.35-.57,1.92-1.92,1.92h-3.9c-2.06,0-2.48.43-2.48,2.55v15.61c0,2.13.43,2.55,2.48,2.55h10.29c2.06,0,2.48-.43,2.48-2.55v-17.74c0-5.32,1.21-7.81,7.52-7.81h13.98c6.32,0,7.52,2.48,7.52,7.81Z"/>
    <path class="cls-1" d="m416.33,88.93c1.35,0,1.92.57,1.92,1.92v26.68c0,1.35-.57,1.92-1.92,1.92h-47.41c-1.35,0-1.92-.57-1.92-1.92v-3.48c0-1.35.57-1.92,1.92-1.92h42.44v-21.29c0-1.35.57-1.92,1.92-1.92h3.05Z"/>
    <path class="cls-1" d="m416.33,48.26c1.35,0,1.92.57,1.92,1.92v3.41c0,1.35-.57,1.92-1.92,1.92h-16.46v20.79h16.46c1.35,0,1.92.57,1.92,1.92v3.48c0,1.35-.57,1.92-1.92,1.92h-41.8c-6.32,0-7.52-2.48-7.52-7.81v-19.73c0-5.32,1.21-7.81,7.52-7.81h41.8Zm-23.35,7.24h-16.54c-2.06,0-2.48.43-2.48,2.55v15.68c0,2.13.43,2.55,2.48,2.55h16.54v-20.79Z"/>
    <path class="cls-1" d="m416.33,18.02c1.35,0,1.92.57,1.92,1.92v3.48c0,1.35-.57,1.92-1.92,1.92h-19.3v7.45c0,5.32-1.21,7.81-7.52,7.81h-20.58c-1.35,0-1.92-.57-1.92-1.92v-3.48c0-1.35.57-1.92,1.92-1.92h18.74c2.06,0,2.48-.43,2.48-2.55V12.92c0-2.27-.43-2.56-2.48-2.56h-18.74c-1.35,0-1.92-.57-1.92-1.92v-3.41c0-1.35.57-1.92,1.92-1.92h20.58c6.32,0,7.52,2.48,7.52,7.81v7.1h19.3Z"/>
  </g>
  <g>
    <path class="cls-1" d="m479.81,434.42v20.44c0,5.32-1.21,7.81-7.52,7.81h-36.19c-6.32,0-7.52-2.48-7.52-7.81v-20.44c0-5.32,1.21-7.81,7.52-7.81h5.82c1.35,0,1.92.57,1.92,1.92v3.41c0,1.35-.57,1.92-1.92,1.92h-3.9c-2.06,0-2.48.43-2.48,2.55v16.39c0,2.13.43,2.55,2.48,2.55h32.43c2.06,0,2.48-.43,2.48-2.55v-16.39c0-2.27-.43-2.55-2.48-2.55h-9.3v8.66c0,1.35-.57,1.92-1.92,1.92h-3.12c-1.35,0-1.92-.57-1.92-1.92v-13.98c0-1.35.57-1.92,1.92-1.92h16.18c6.32,0,7.52,2.48,7.52,7.81Z"/>
    <path class="cls-1" d="m478.18,384.31c.99-.57,1.63-.21,1.63.99v3.76c0,1.42-.43,2.2-1.63,2.91l-18.03,10.57v7.95h17.74c1.35,0,1.92.57,1.92,1.92v3.48c0,1.35-.57,1.92-1.92,1.92h-47.41c-1.35,0-1.92-.57-1.92-1.92v-24.91c0-5.32,1.21-7.81,7.52-7.81h16.54c6.32,0,7.52,2.48,7.52,7.81v3.97l18.03-10.64Zm-27.39,6.03h-12.77c-2.06,0-2.48.43-2.48,2.55v17.53h17.74v-17.53c0-2.27-.43-2.55-2.48-2.55Z"/>
    <path class="cls-1" d="m477.89,339.6c1.35,0,1.92.57,1.92,1.92v3.41c0,1.35-.57,1.92-1.92,1.92h-16.46v20.79h16.46c1.35,0,1.92.57,1.92,1.92v3.48c0,1.35-.57,1.92-1.92,1.92h-41.8c-6.32,0-7.52-2.48-7.52-7.81v-19.73c0-5.32,1.21-7.81,7.52-7.81h41.8Zm-23.35,7.24h-16.54c-2.06,0-2.48.43-2.48,2.55v15.68c0,2.13.43,2.55,2.48,2.55h16.54v-20.79Z"/>
    <path class="cls-1" d="m477.89,294.53c1.35,0,1.92.57,1.92,1.92v5.18c0,1.42-.5,2.2-1.77,2.84l-36.76,18.52h36.55c1.35,0,1.92.57,1.92,1.92v3.48c0,1.35-.57,1.92-1.92,1.92h-47.41c-1.35,0-1.92-.57-1.92-1.92v-4.97c0-1.42.5-2.2,1.77-2.84l37.19-18.74h-36.97c-1.35,0-1.92-.57-1.92-1.92v-3.48c0-1.35.57-1.92,1.92-1.92h47.41Z"/>
    <path class="cls-1" d="m477.89,267.84c1.35,0,1.92.57,1.92,1.92v3.48c0,1.35-.57,1.92-1.92,1.92h-42.37v11.99c0,1.35-.57,1.92-1.92,1.92h-3.12c-1.35,0-1.92-.57-1.92-1.92v-31.23c0-1.35.57-1.92,1.92-1.92h3.12c1.35,0,1.92.57,1.92,1.92v11.92h42.37Z"/>
    <path class="cls-1" d="m477.89,229.09c1.35,0,1.92.57,1.92,1.92v3.48c0,1.35-.57,1.92-1.92,1.92h-47.41c-1.35,0-1.92-.57-1.92-1.92v-3.48c0-1.35.57-1.92,1.92-1.92h47.41Z"/>
    <path class="cls-1" d="m479.81,192.82v19.66c0,5.32-1.21,7.81-7.52,7.81h-5.82c-1.35,0-1.92-.57-1.92-1.92v-3.41c0-1.35.57-1.92,1.92-1.92h3.97c2.06,0,2.48-.43,2.48-2.55v-15.61c0-2.13-.43-2.55-2.48-2.55h-10.29c-2.06,0-2.48.43-2.48,2.55v17.67c0,5.32-1.21,7.81-7.52,7.81h-14.05c-6.32,0-7.52-2.48-7.52-7.81v-19.66c0-5.32,1.21-7.81,7.52-7.81h5.82c1.35,0,1.92.57,1.92,1.92v3.48c0,1.35-.57,1.92-1.92,1.92h-3.9c-2.06,0-2.48.43-2.48,2.55v15.61c0,2.13.43,2.55,2.48,2.55h10.29c2.06,0,2.48-.43,2.48-2.55v-17.74c0-5.32,1.21-7.81,7.52-7.81h13.98c6.32,0,7.52,2.48,7.52,7.81Z"/>
    <path class="cls-1" d="m479.81,135.69v19.66c0,5.32-1.21,7.81-7.52,7.81h-5.82c-1.35,0-1.92-.57-1.92-1.92v-3.41c0-1.35.57-1.92,1.92-1.92h3.97c2.06,0,2.48-.43,2.48-2.55v-15.61c0-2.13-.43-2.55-2.48-2.55h-10.29c-2.06,0-2.48.43-2.48,2.55v17.67c0,5.32-1.21,7.81-7.52,7.81h-14.05c-6.32,0-7.52-2.48-7.52-7.81v-19.66c0-5.32,1.21-7.81,7.52-7.81h5.82c1.35,0,1.92.57,1.92,1.92v3.48c0,1.35-.57,1.92-1.92,1.92h-3.9c-2.06,0-2.48.43-2.48,2.55v15.61c0,2.13.43,2.55,2.48,2.55h10.29c2.06,0,2.48-.43,2.48-2.55v-17.74c0-5.32,1.21-7.81,7.52-7.81h13.98c6.32,0,7.52,2.48,7.52,7.81Z"/>
    <path class="cls-1" d="m477.89,88.63c1.35,0,1.92.57,1.92,1.92v26.68c0,1.35-.57,1.92-1.92,1.92h-47.41c-1.35,0-1.92-.57-1.92-1.92v-3.48c0-1.35.57-1.92,1.92-1.92h42.44v-21.29c0-1.35.57-1.92,1.92-1.92h3.05Z"/>
    <path class="cls-1" d="m477.89,47.97c1.35,0,1.92.57,1.92,1.92v3.41c0,1.35-.57,1.92-1.92,1.92h-16.46v20.79h16.46c1.35,0,1.92.57,1.92,1.92v3.48c0,1.35-.57,1.92-1.92,1.92h-41.8c-6.32,0-7.52-2.48-7.52-7.81v-19.73c0-5.32,1.21-7.81,7.52-7.81h41.8Zm-23.35,7.24h-16.54c-2.06,0-2.48.43-2.48,2.55v15.68c0,2.13.43,2.55,2.48,2.55h16.54v-20.79Z"/>
    <path class="cls-1" d="m477.89,17.73c1.35,0,1.92.57,1.92,1.92v3.48c0,1.35-.57,1.92-1.92,1.92h-19.3v7.45c0,5.32-1.21,7.81-7.52,7.81h-20.58c-1.35,0-1.92-.57-1.92-1.92v-3.48c0-1.35.57-1.92,1.92-1.92h18.74c2.06,0,2.48-.43,2.48-2.55V12.62c0-2.27-.43-2.56-2.48-2.56h-18.74c-1.35,0-1.92-.57-1.92-1.92v-3.41c0-1.35.57-1.92,1.92-1.92h20.58c6.32,0,7.52,2.48,7.52,7.81v7.1h19.3Z"/>
  </g>
</svg>