<?xml version="1.0" encoding="UTF-8"?>
<svg id="Layer_1" data-name="Layer 1" xmlns="http://www.w3.org/2000/svg" viewBox="0 0 52.35 465.48">
  <defs>
    <style>
      .cls-1 {
        fill: #231f20;
        stroke-width: 0px;
      }
    </style>
  </defs>
  <path class="cls-1" d="m31.29,430.8v17.24l11.69,2.48v-1.26c0-1.81.28-3.03.83-3.66.55-.63,1.34-.95,2.36-.95,1.63,0,2.98.78,4.05,2.32.55.81.83,2.14.83,3.98v9.92c0,1.79-.28,3-.85,3.64-.56.64-1.34.96-2.34.96-1.68,0-3.06-.81-4.13-2.44-.52-.79-.77-2.27-.75-4.45l-31.57-6.69c-.1,1.21-.44,2.09-1,2.66-.56.56-1.31.85-2.22.85-1.6,0-2.94-.77-4.01-2.32-.58-.81-.87-2.15-.87-4.02l.04-8.23c0-1.81.28-3.04.83-3.68.55-.64,1.34-.96,2.36-.96,1.63,0,2.98.79,4.05,2.36.55.81.83,2.14.83,3.98v1.3l11.81,2.48v-17.24l-11.81-2.52v1.3c0,1.79-.28,3-.85,3.64-.56.64-1.36.96-2.38.96-1.6,0-2.94-.76-4.01-2.28-.58-.84-.87-2.19-.87-4.05l.04-8.23c0-1.81.28-3.03.83-3.66.55-.63,1.34-.95,2.36-.95,1.21,0,2.28.47,3.23,1.4.94.93,1.5,2.2,1.65,3.8l31.57,6.73c0-2.15.22-3.5.67-4.05.63-.73,1.47-1.1,2.52-1.1,1.63,0,2.98.77,4.05,2.32.55.81.83,2.14.83,3.98v9.92c0,1.78-.28,3-.85,3.64s-1.34.96-2.34.96c-1.6,0-2.94-.76-4.01-2.28-.58-.84-.87-2.19-.87-4.05v-1.26l-11.69-2.48Z"/>
  <path class="cls-1" d="m37.28,379.16v33.1c2.07-.37,3.76-1.47,5.06-3.31,1.3-1.84,1.95-4.59,1.95-8.27,0-3.04-.64-7.18-1.93-12.4-.53-2.18-.79-3.67-.79-4.49,0-.87.28-1.59.85-2.17.56-.58,1.31-.87,2.22-.87,1.34,0,2.53.6,3.56,1.79,1.04,1.19,1.99,4.01,2.85,8.44.87,4.44,1.3,8.44,1.3,12.01,0,5.62-1.41,9.95-4.23,13.01-2.82,3.06-6.42,4.59-10.8,4.59-3.65,0-7.31-1.11-10.98-3.33-3.67-2.22-6.61-5.38-8.8-9.49-2.19-4.11-3.29-8.33-3.29-12.66,0-5.09,1.4-9.22,4.21-12.38,2.81-3.16,6.73-4.74,11.77-4.74,1.08,0,2.28.13,3.62.39l3.42.75Zm-8.07,7.24c-2.2.71-3.9,1.94-5.1,3.7-1.19,1.76-1.79,4.01-1.79,6.77s.57,5.25,1.71,7.48c1.14,2.23,2.87,4.21,5.18,5.94v-23.89Z"/>
  <path class="cls-1" d="m0,346.03l42.98,9.13v-9.72c0-1.78.28-3,.83-3.64.55-.64,1.34-.96,2.36-.96,1.63,0,2.98.79,4.05,2.36.55.79.83,2.11.83,3.98v27.47c0,1.78-.28,3-.85,3.64-.56.64-1.34.96-2.34.96-1.63,0-2.96-.76-4.01-2.28-.58-.84-.87-2.19-.87-4.05v-9.68l-34.91-7.44v6.49c0,1.79-.28,3-.85,3.64-.56.64-1.34.96-2.34.96-1.6,0-2.94-.76-4.02-2.28-.58-.81-.87-2.15-.87-4.02v-14.56Z"/>
  <path class="cls-1" d="m0,304.58l42.98,9.13v-9.72c0-1.78.28-3,.83-3.64.55-.64,1.34-.96,2.36-.96,1.63,0,2.98.79,4.05,2.36.55.79.83,2.11.83,3.98v27.47c0,1.78-.28,3-.85,3.64-.56.64-1.34.96-2.34.96-1.63,0-2.96-.76-4.01-2.28-.58-.84-.87-2.19-.87-4.05v-9.68l-34.91-7.44v6.49c0,1.79-.28,3-.85,3.64-.56.64-1.34.96-2.34.96-1.6,0-2.94-.76-4.02-2.28-.58-.81-.87-2.15-.87-4.02v-14.56Z"/>
  <path class="cls-1" d="m52.35,278.18c0,3.33-.68,6.37-2.03,9.11-1.35,2.74-3.18,4.8-5.49,6.18-2.31,1.38-4.83,2.07-7.56,2.07-3.38,0-6.97-1.15-10.75-3.46-3.78-2.31-6.77-5.52-8.97-9.64-2.2-4.12-3.31-8.32-3.31-12.6,0-3.07.71-5.96,2.13-8.66s3.31-4.74,5.69-6.1c2.38-1.36,4.98-2.05,7.81-2.05,3.67,0,7.26,1.08,10.77,3.25,3.5,2.16,6.33,5.31,8.48,9.45s3.23,8.29,3.23,12.46Zm-8.07-1.65c0-4.12-1.32-7.69-3.96-10.71-2.64-3.02-5.4-4.53-8.29-4.53s-5.13.96-6.97,2.87c-1.84,1.92-2.76,4.46-2.76,7.64,0,4.51,1.68,8.38,5.04,11.61,2.7,2.57,5.41,3.86,8.11,3.86,2.28,0,4.32-.99,6.12-2.97,1.8-1.98,2.7-4.57,2.7-7.77Z"/>
  <path class="cls-1" d="m28.14,190.25l22.91,12.36v9.05l-39.64-3.62c-.13,1.02-.46,1.79-.98,2.28-.52.5-1.18.75-1.97.75-1.73,0-3.15-.77-4.25-2.32-.6-.81-.91-2.17-.91-4.05l.04-10.79c0-1.81.28-3.03.83-3.66.55-.63,1.34-.95,2.36-.95,1.6,0,2.94.76,4.01,2.28.58.81.87,2.17.87,4.05v4.21l22.55,2.13-18.78-10.31v-8.42l18.78-2.28-22.55-7.48v4.21c0,1.81-.28,3.04-.85,3.68-.56.64-1.36.96-2.38.96-1.6,0-2.94-.77-4.01-2.32-.58-.81-.87-2.15-.87-4.01l.04-10.75c0-1.78.28-3,.83-3.64.55-.64,1.34-.96,2.36-.96,1.13,0,2.16.43,3.11,1.28s1.54,2.01,1.77,3.48l39.64,13.07v8.94l-22.91,2.83Z"/>
  <path class="cls-1" d="m52.35,153.85c0,3.33-.68,6.37-2.03,9.11-1.35,2.74-3.18,4.8-5.49,6.18-2.31,1.38-4.83,2.07-7.56,2.07-3.38,0-6.97-1.15-10.75-3.46-3.78-2.31-6.77-5.52-8.97-9.64-2.2-4.12-3.31-8.32-3.31-12.6,0-3.07.71-5.96,2.13-8.66s3.31-4.74,5.69-6.1c2.38-1.36,4.98-2.05,7.81-2.05,3.67,0,7.26,1.08,10.77,3.25,3.5,2.16,6.33,5.31,8.48,9.45s3.23,8.29,3.23,12.46Zm-8.07-1.65c0-4.12-1.32-7.69-3.96-10.71-2.64-3.02-5.4-4.53-8.29-4.53s-5.13.96-6.97,2.87c-1.84,1.92-2.76,4.46-2.76,7.64,0,4.51,1.68,8.38,5.04,11.61,2.7,2.57,5.41,3.86,8.11,3.86,2.28,0,4.32-.99,6.12-2.97,1.8-1.98,2.7-4.57,2.7-7.77Z"/>
  <path class="cls-1" d="m15.31,106.3l5.04,1.06c-2.47-3.94-4.1-6.96-4.9-9.07-.8-2.11-1.2-4.02-1.2-5.73,0-2.31.71-4.34,2.15-6.1,1.43-1.76,2.74-2.64,3.92-2.64,1.29,0,2.44.52,3.46,1.55,1.02,1.04,1.54,2.2,1.54,3.48,0,1-.5,1.94-1.5,2.83-1,.89-1.5,1.77-1.5,2.64,0,.97.55,2.55,1.65,4.72,1.1,2.18,3.38,5.69,6.85,10.55l12.16,2.56v-11.45c0-1.81.28-3.03.83-3.66.55-.63,1.34-.95,2.36-.95,1.63,0,2.98.77,4.05,2.32.55.81.83,2.14.83,3.98v24.4c0,1.79-.28,3-.85,3.64-.56.64-1.34.96-2.34.96-1.63,0-2.96-.76-4.01-2.28-.58-.84-.87-2.19-.87-4.05v-4.84l-19.6-4.13v2.91c0,1.79-.28,3.01-.85,3.66-.56.66-1.34.98-2.34.98-1.57,0-2.9-.75-3.98-2.24-.6-.84-.91-2.22-.91-4.13v-10.98Z"/>
  <path class="cls-1" d="m0,55.93l42.98,9.13v-9.72c0-1.78.28-3,.83-3.64.55-.64,1.34-.96,2.36-.96,1.63,0,2.98.79,4.05,2.36.55.79.83,2.11.83,3.98v27.47c0,1.78-.28,3-.85,3.64-.56.64-1.34.96-2.34.96-1.63,0-2.96-.76-4.01-2.28-.58-.84-.87-2.19-.87-4.05v-9.68l-34.91-7.44v6.49c0,1.79-.28,3-.85,3.64-.56.64-1.34.96-2.34.96-1.6,0-2.94-.76-4.02-2.28-.58-.81-.87-2.15-.87-4.02v-14.56Z"/>
  <path class="cls-1" d="m0,0l42.98,9.13v-1.38c0-1.78.28-3,.85-3.64.56-.64,1.34-.96,2.34-.96,1.63,0,2.97.76,4.02,2.28.58.81.87,2.16.87,4.05v9.45l-1.97-.43c2.18,4.15,3.27,8.37,3.27,12.67,0,5.3-1.35,9.42-4.05,12.36-2.7,2.94-6.06,4.41-10.08,4.41-3.75,0-7.51-1.06-11.28-3.19-3.77-2.12-6.92-5.37-9.47-9.72-2.15-3.7-3.23-7.62-3.23-11.77s1.29-7.95,3.86-11.34l-10.04-2.12v1.38c0,1.79-.28,3-.83,3.64-.55.64-1.34.96-2.36.96-1.6,0-2.94-.76-4.02-2.28-.58-.84-.87-2.19-.87-4.05V0Zm44.28,29.6c0-4.41-1.22-7.93-3.66-10.57-2.44-2.64-5.47-3.96-9.09-3.96-2.62,0-4.81.91-6.57,2.72-1.76,1.81-2.64,4.17-2.64,7.08,0,3.88,1.46,7.32,4.37,10.31s6.17,4.49,9.76,4.49c2.28,0,4.16-.84,5.63-2.52,1.47-1.68,2.21-4.2,2.21-7.56Z"/>
</svg>