<?xml version="1.0" encoding="UTF-8"?>
<svg id="Layer_1" data-name="Layer 1" xmlns="http://www.w3.org/2000/svg" viewBox="0 0 182.57 512.98">
  <defs>
    <style>
      .cls-1 {
        fill: #231f20;
        stroke-width: 0px;
      }
    </style>
  </defs>
  <path class="cls-1" d="m68.82,509.61c0,2.34-1.03,3.37-3.37,3.37h-10.96c-2.34,0-3.37-1.03-3.37-3.37v-25.19c0-1.59-1.22-2.43-2.72-2.43-2.15,0-3,.84-3.18,2.43l-1.97,14.04c-1.31,8.8-5.06,14.51-15.54,14.51h-9.83c-10.67,0-16.48-7.21-16.48-19.38v-26.22c0-2.34,1.03-3.37,3.37-3.37h11.14c2.34,0,3.37,1.03,3.37,3.37v21.82c0,1.59,1.12,2.53,2.81,2.53s2.81-.94,3-2.53l1.87-13.95c1.31-8.8,5.06-14.61,15.54-14.61h9.83c10.67,0,16.48,7.3,16.48,19.38v29.59Z"/>
  <path class="cls-1" d="m70.22,430.4c0,23.41-7.68,29.12-19.1,29.12h-31.93c-11.42,0-19.19-5.71-19.19-29.12s7.77-29.02,19.19-29.02h31.93c11.42,0,19.1,5.62,19.1,29.02Zm-18.07,0c0-6.83-1.87-7.86-4.4-7.86h-25.19c-2.43,0-4.31,1.03-4.31,7.86s1.87,7.87,4.31,7.87h25.19c2.53,0,4.4-1.12,4.4-7.87Z"/>
  <path class="cls-1" d="m68.82,394.17c0,2.34-1.03,3.37-3.37,3.37H4.77c-2.34,0-3.37-1.03-3.37-3.37v-28.65c0-17.04,7.4-22.1,18.26-22.1h11.98c10.86,0,18.26,5.06,18.26,22.1v10.77h15.54c2.34,0,3.37,1.03,3.37,3.37v14.51Zm-35.77-17.7v-8.43c0-3.65-2.15-4.4-4.59-4.4h-4.96c-2.43,0-4.59.75-4.59,4.4v8.43h14.14Z"/>
  <path class="cls-1" d="m68.82,338.37c0,2.34-1.03,3.37-3.37,3.37H4.77c-2.34,0-3.37-1.03-3.37-3.37v-14.51c0-2.34,1.03-3.37,3.37-3.37h20.32v-15.64H4.77c-2.34,0-3.37-1.03-3.37-3.37v-14.51c0-2.34,1.03-3.37,3.37-3.37h60.67c2.34,0,3.37,1.03,3.37,3.37v14.51c0,2.34-1.03,3.37-3.37,3.37h-20.79v15.64h20.79c2.34,0,3.37,1.03,3.37,3.37v14.51Z"/>
  <path class="cls-1" d="m65.45,280.23h-11.14c-2.34,0-3.37-1.03-3.37-3.37v-9.27h-31.46v9.27c0,2.34-1.03,3.37-3.37,3.37H4.77c-2.34,0-3.37-1.03-3.37-3.37v-39.89c0-2.34,1.03-3.37,3.37-3.37h11.33c2.34,0,3.37,1.03,3.37,3.37v9.08h31.46v-9.08c0-2.34,1.03-3.37,3.37-3.37h11.14c2.34,0,3.37,1.03,3.37,3.37v39.89c0,2.34-1.03,3.37-3.37,3.37Z"/>
  <path class="cls-1" d="m68.82,214.41v13.76c0,2.34-1.03,3.37-3.37,3.37h-24.72c-3.75,0-8.43-1.12-14.98-3.65l-21.25-8.15c-2.15-.75-3.09-2.25-3.09-4.77v-25.19c0-2.43.94-3.93,3.09-4.68l21.25-8.15c6.55-2.53,11.24-3.65,14.98-3.65h24.72c2.34,0,3.37,1.03,3.37,3.37v14.14c0,2.53-1.03,3.65-3.37,3.65h-13.11v16.57h13.11c2.34,0,3.37,1.03,3.37,3.37Zm-33.52-4.31v-14.7l-14.23,4.4c-1.12.47-1.59,1.03-1.59,1.78v2.34c0,.75.47,1.31,1.59,1.78l14.23,4.4Z"/>
  <path class="cls-1" d="m78.18,166.57c0,2.34-.94,3.37-3.37,3.37h-3.75c-2.34,0-3.37-1.03-3.37-3.37v-6.46c0-1.69-.94-2.53-2.62-2.53h-1.4v10.21c0,2.34-1.03,3.37-3.37,3.37h-13.86c-2.34,0-3.37-1.03-3.37-3.37v-18.91c0-2.34,1.03-3.37,3.37-3.37h17.6c9.55,0,14.14,5.43,14.14,13.86v7.21Z"/>
  <path class="cls-1" d="m177.8,512.79h-11.14c-2.34,0-3.37-1.03-3.37-3.37v-9.27h-31.46v9.27c0,2.34-1.03,3.37-3.37,3.37h-11.33c-2.34,0-3.37-1.03-3.37-3.37v-39.89c0-2.34,1.03-3.37,3.37-3.37h11.33c2.34,0,3.37,1.03,3.37,3.37v9.08h31.46v-9.08c0-2.34,1.03-3.37,3.37-3.37h11.14c2.34,0,3.37,1.03,3.37,3.37v39.89c0,2.34-1.03,3.37-3.37,3.37Z"/>
  <path class="cls-1" d="m181.17,446.32c0,2.34-1.03,3.37-3.37,3.37h-60.67c-2.34,0-3.37-1.03-3.37-3.37v-14.51c0-2.34,1.03-3.37,3.37-3.37h46.35v-12.83h-15.17c-2.34,0-3.37-1.03-3.37-3.37v-13.58c0-2.34,1.03-3.37,3.37-3.37h29.49c2.34,0,3.37,1.03,3.37,3.37v47.66Z"/>
  <path class="cls-1" d="m182.57,364.58c0,23.41-7.68,29.12-19.1,29.12h-31.93c-11.42,0-19.19-5.71-19.19-29.12s7.77-29.02,19.19-29.02h31.93c11.42,0,19.1,5.62,19.1,29.02Zm-18.07,0c0-6.83-1.87-7.86-4.4-7.86h-25.19c-2.43,0-4.31,1.03-4.31,7.86s1.87,7.87,4.31,7.87h25.19c2.53,0,4.4-1.12,4.4-7.87Z"/>
  <path class="cls-1" d="m181.17,316.18c0,2.43-.75,3.84-3.09,4.78l-22.94,9.18c-5.62,2.25-7.4,3-13.29,3h-24.72c-2.34,0-3.37-1.03-3.37-3.37v-14.89c0-2.34,1.03-3.65,3.37-3.65h25.84c1.31,0,2.43-.28,3.84-.75l13.11-4.4c1.22-.38,1.59-.75,1.59-1.78v-1.03c0-1.03-.37-1.4-1.59-1.78l-13.2-4.4c-1.4-.47-2.53-.75-3.84-.75h-25.75c-2.34,0-3.37-1.03-3.37-3.37v-14.7c0-2.43,1.03-3.37,3.37-3.37h24.72c5.9,0,7.68.75,13.29,3l22.94,9.17c2.34.94,3.09,2.34,3.09,4.78v24.34Z"/>
  <path class="cls-1" d="m181.17,268.05c0,2.34-1.03,3.37-3.37,3.37h-60.67c-2.34,0-3.37-1.03-3.37-3.37v-43.44c0-2.34,1.03-3.37,3.37-3.37h10.96c2.34,0,3.37,1.03,3.37,3.37v25.84h7.21v-18.26c0-2.34,1.03-3.37,3.37-3.37h10.02c2.34,0,3.37,1.03,3.37,3.37v18.26h8.05v-25.84c0-2.34,1.03-3.37,3.37-3.37h10.96c2.34,0,3.37,1.03,3.37,3.37v43.44Z"/>
  <path class="cls-1" d="m181.17,187.16c0,2.43-1.03,3.37-3.37,3.37h-11.98l-19.19,14.32c-3.84,2.9-5.71,3.56-11.52,3.56h-17.98c-2.34,0-3.37-1.03-3.37-3.37v-14.42c0-2.34,1.03-3.37,3.37-3.37h15.36c1.31,0,2.62,0,3.93-.84l6.74-4.31c1.12-.66,1.59-1.22,1.59-2.25v-.94c0-1.03-.47-1.59-1.59-2.25l-6.74-4.31c-1.31-.84-2.62-.84-3.93-.84h-15.36c-2.34,0-3.37-1.03-3.37-3.37v-13.95c0-2.34,1.03-3.37,3.37-3.37h17.98c5.81,0,7.68.75,11.52,3.56l19.29,14.23h11.89c2.34,0,3.37,1.03,3.37,3.37v15.17Z"/>
  <path class="cls-1" d="m182.57,120.13c0,23.41-7.68,29.12-19.1,29.12h-31.93c-11.42,0-19.19-5.71-19.19-29.12s7.77-29.02,19.19-29.02h31.93c11.42,0,19.1,5.62,19.1,29.02Zm-18.07,0c0-6.83-1.87-7.86-4.4-7.86h-25.19c-2.43,0-4.31,1.03-4.31,7.86s1.87,7.86,4.31,7.86h25.19c2.53,0,4.4-1.12,4.4-7.86Z"/>
  <path class="cls-1" d="m182.57,58.8c0,23.22-7.68,28.93-19.1,28.93h-46.35c-2.34,0-3.37-1.03-3.37-3.37v-14.7c0-2.34,1.03-3.37,3.37-3.37h42.7c2.53,0,4.4-1.12,4.4-7.68s-1.87-7.77-4.4-7.77h-42.7c-2.34,0-3.37-.94-3.37-3.37v-14.23c0-2.34,1.03-3.37,3.37-3.37h46.35c11.42,0,19.1,5.71,19.1,28.93Z"/>
  <path class="cls-1" d="m156.64,19.39c0,2.34-1.03,3.37-3.37,3.46l-36.14,1.4c-2.34.09-3.37-.84-3.37-3.18V3.19c0-2.34,1.03-3.28,3.37-3.18l36.14,1.31c2.34.09,3.37,1.22,3.37,3.56v14.51Zm24.53,1.31c0,2.34-1.03,3.37-3.37,3.37h-12.27c-2.43,0-3.37-1.03-3.37-3.37V3.47c0-2.34.94-3.37,3.37-3.37h12.27c2.34,0,3.37,1.03,3.37,3.37v17.23Z"/>
</svg>