<?xml version="1.0" encoding="UTF-8"?>
<svg id="Layer_1" data-name="Layer 1" xmlns="http://www.w3.org/2000/svg" viewBox="0 0 227.98 281.26">
  <defs>
    <style>
      .cls-1 {
        fill: #231f20;
        stroke-width: 0px;
      }
    </style>
  </defs>
  <g>
    <path class="cls-1" d="m21.61,279.52c-9.52,0-21.33-9.16-21.33-26.92,0-5.86,2.56-12.45,2.56-13.83,0-1.28-1.28-2.56-1.28-4.49,0-3.11,7.05-10.07,14.74-10.07,3.11,0,6.23,2.01,6.23,5.4,0,6.13-10.44,9.71-10.44,19.23,0,2.84,1.28,5.86,4.58,5.86,7.23,0,5.31-12.54,12.36-23.16,3.75-5.68,8.33-8.51,15.2-8.51,10.71,0,22.8,8.79,22.8,30.12,0,6.04-1.56,16.39-4.39,21.61-2.47,4.39-12.18,6.5-16.85,6.5-2.47,0-4.94-1.1-4.94-3.84,0-6.5,14.56-5.4,14.56-22.25,0-2.01-1.01-7.05-4.49-7.05-6.59,0-4.94,12.54-13.09,22.71-4.03,5.04-9.61,8.7-16.2,8.7Z"/>
    <path class="cls-1" d="m15.47,211.31c-6.87,0-3.84,8.51-9.61,8.51-3.66,0-4.49-4.03-4.49-6.87,0-2.29.18-4.49.18-6.78,0-13.27-1.28-21.33-1.28-25.18,0-12.45,7.23-24.44,20.97-24.44s20.97,11.54,20.97,24.26c0,2.75-.46,5.49-.46,7.97,0,1.1.46,1.46,1.46,1.46h5.31c11.44-.27,6.68-6.96,11.99-6.96,5.95,0,6.23,13.18,6.23,17.3,0,3.85-.09,17.4-6.04,17.4-5.04,0-1.92-6.68-9.43-6.68H15.47Zm-4.39-24.54c0,3.57,1.1,3.48,2.93,3.48h13.73c1.92,0,4.03.82,4.03-4.12,0-6.04-4.58-8.42-10.16-8.42s-10.53,2.93-10.53,9.06Z"/>
    <path class="cls-1" d="m32.68,145.12c-6.32-2.84-14.37-6.59-21.61-6.59-6.32,0-11.08-2.93-11.08-11.08s8.15-13,14.19-16.57c2.65-1.56,30.67-15.38,38.18-18.68,6.96-3.02,2.75-7.96,7.97-7.96,6.68,0,6.41,13,6.41,17.58,0,13.09-.09,20.97-5.77,20.97-4.39,0-2.75-5.58-5.95-5.58-4.12,0-4.49,2.29-4.49,17.03,0,4.76.18,7.6,4.67,7.6,3.57,0,1.19-5.86,5.95-5.86,5.49,0,5.58,9.89,5.58,13.55,0,13.09-2.47,14.28-5.4,14.28-4.3,0-3.02-4.94-6.32-7.6-2.47-2.01-6.87-3.94-9.8-5.31l-12.54-5.77Zm6.59-19.23c0-.92.18-3.66-1.19-3.66s-6.13,2.66-7.42,3.39c-1.46.82-4.85,2.38-4.85,4.39,0,2.2,5.49,3.75,6.5,4.12,1.01.37,4.58,1.92,5.68,1.92,1.56,0,1.28-2.29,1.28-3.3v-6.87Z"/>
    <path class="cls-1" d="m40.01,58.79c-1.19.55-3.94,1.56-3.94,3.2,0,2.84,12.08,1.92,15.11,1.92,9.8,0,5.22-5.86,10.16-5.86,5.22,0,5.4,9.8,5.4,13.37,0,3.2-.27,11.54-5.04,11.54-5.22,0-.92-5.49-8.42-6.23-7.69-.73-16.21-1.56-29.48-1.56-5.49,0-8.33.37-10.44,1.37-1.92.92-2.56,6.13-6.32,6.13-5.22,0-6.5-8.51-6.5-15.84,0-10.71,1.83-10.53,6.5-13.28,5.4-3.21,20.42-8.88,21.33-12.91.64-2.84-10.44-6.59-16.48-9.89C3.3,26.1.55,26.01.55,13.92.55,9.9.82.74,6.59.74c3.66,0,4.39,4.12,7.51,5.04,2.56.73,13.37,1.37,17.49,1.37,1.37,0,11.44-.55,19.96-.92,6.68-.27,5.22-5.77,9.34-5.77,6.13,0,5.86,12.54,5.86,16.57,0,3.75.37,16.3-5.49,16.3-3.2,0-3.75-4.12-6.68-4.76-1.56-.37-17.3-2.2-17.3,1.01,0,2.84,8.06,5.77,12.73,7.97,4.21,2.01,14.65,5.31,14.28,8.24-.18,1.46,0,2.2-12.36,7.69l-11.9,5.31Z"/>
  </g>
  <g>
    <path class="cls-1" d="m102.09,279.52c-9.52,0-21.33-9.16-21.33-26.92,0-5.86,2.56-12.45,2.56-13.83,0-1.28-1.28-2.56-1.28-4.49,0-3.11,7.05-10.07,14.74-10.07,3.11,0,6.23,2.01,6.23,5.4,0,6.13-10.44,9.71-10.44,19.23,0,2.84,1.28,5.86,4.58,5.86,7.23,0,5.31-12.54,12.36-23.16,3.75-5.68,8.33-8.51,15.2-8.51,10.71,0,22.8,8.79,22.8,30.12,0,6.04-1.56,16.39-4.39,21.61-2.47,4.39-12.18,6.5-16.85,6.5-2.47,0-4.94-1.1-4.94-3.84,0-6.5,14.56-5.4,14.56-22.25,0-2.01-1.01-7.05-4.49-7.05-6.59,0-4.94,12.54-13.09,22.71-4.03,5.04-9.61,8.7-16.2,8.7Z"/>
    <path class="cls-1" d="m95.95,211.31c-6.87,0-3.84,8.51-9.61,8.51-3.66,0-4.49-4.03-4.49-6.87,0-2.29.18-4.49.18-6.78,0-13.27-1.28-21.33-1.28-25.18,0-12.45,7.23-24.44,20.97-24.44s20.97,11.54,20.97,24.26c0,2.75-.46,5.49-.46,7.97,0,1.1.46,1.46,1.46,1.46h5.31c11.44-.27,6.68-6.96,11.99-6.96,5.95,0,6.23,13.18,6.23,17.3,0,3.85-.09,17.4-6.04,17.4-5.04,0-1.92-6.68-9.43-6.68h-35.8Zm-4.39-24.54c0,3.57,1.1,3.48,2.93,3.48h13.73c1.92,0,4.03.82,4.03-4.12,0-6.04-4.58-8.42-10.16-8.42s-10.53,2.93-10.53,9.06Z"/>
    <path class="cls-1" d="m113.16,145.12c-6.32-2.84-14.37-6.59-21.61-6.59-6.32,0-11.08-2.93-11.08-11.08s8.15-13,14.19-16.57c2.65-1.56,30.67-15.38,38.18-18.68,6.96-3.02,2.75-7.96,7.97-7.96,6.68,0,6.41,13,6.41,17.58,0,13.09-.09,20.97-5.77,20.97-4.39,0-2.75-5.58-5.95-5.58-4.12,0-4.49,2.29-4.49,17.03,0,4.76.18,7.6,4.67,7.6,3.57,0,1.19-5.86,5.95-5.86,5.49,0,5.58,9.89,5.58,13.55,0,13.09-2.47,14.28-5.4,14.28-4.3,0-3.02-4.94-6.32-7.6-2.47-2.01-6.87-3.94-9.8-5.31l-12.54-5.77Zm6.59-19.23c0-.92.18-3.66-1.19-3.66s-6.13,2.66-7.42,3.39c-1.46.82-4.85,2.38-4.85,4.39,0,2.2,5.49,3.75,6.5,4.12,1.01.37,4.58,1.92,5.68,1.92,1.56,0,1.28-2.29,1.28-3.3v-6.87Z"/>
    <path class="cls-1" d="m120.49,58.79c-1.19.55-3.94,1.56-3.94,3.2,0,2.84,12.08,1.92,15.11,1.92,9.8,0,5.22-5.86,10.16-5.86,5.22,0,5.4,9.8,5.4,13.37,0,3.2-.27,11.54-5.04,11.54-5.22,0-.92-5.49-8.42-6.23-7.69-.73-16.21-1.56-29.48-1.56-5.49,0-8.33.37-10.44,1.37-1.92.92-2.56,6.13-6.32,6.13-5.22,0-6.5-8.51-6.5-15.84,0-10.71,1.83-10.53,6.5-13.28,5.4-3.21,20.42-8.88,21.33-12.91.64-2.84-10.44-6.59-16.48-9.89-8.61-4.67-11.35-4.76-11.35-16.85,0-4.03.27-13.18,6.04-13.18,3.66,0,4.39,4.12,7.51,5.04,2.56.73,13.37,1.37,17.49,1.37,1.37,0,11.44-.55,19.96-.92,6.68-.27,5.22-5.77,9.34-5.77,6.13,0,5.86,12.54,5.86,16.57,0,3.75.37,16.3-5.49,16.3-3.2,0-3.75-4.12-6.68-4.76-1.56-.37-17.3-2.2-17.3,1.01,0,2.84,8.06,5.77,12.73,7.97,4.21,2.01,14.65,5.31,14.28,8.24-.18,1.46,0,2.2-12.36,7.69l-11.9,5.31Z"/>
  </g>
  <g>
    <path class="cls-1" d="m182.57,279.06c-9.52,0-21.33-9.16-21.33-26.92,0-5.86,2.56-12.45,2.56-13.83,0-1.28-1.28-2.56-1.28-4.49,0-3.11,7.05-10.07,14.74-10.07,3.11,0,6.23,2.01,6.23,5.4,0,6.13-10.44,9.71-10.44,19.23,0,2.84,1.28,5.86,4.58,5.86,7.23,0,5.31-12.54,12.36-23.16,3.75-5.68,8.33-8.51,15.2-8.51,10.71,0,22.8,8.79,22.8,30.12,0,6.04-1.56,16.39-4.39,21.61-2.47,4.39-12.18,6.5-16.85,6.5-2.47,0-4.94-1.1-4.94-3.84,0-6.5,14.56-5.4,14.56-22.25,0-2.01-1.01-7.05-4.49-7.05-6.59,0-4.94,12.54-13.09,22.71-4.03,5.04-9.61,8.7-16.2,8.7Z"/>
    <path class="cls-1" d="m176.43,210.85c-6.87,0-3.84,8.51-9.61,8.51-3.66,0-4.49-4.03-4.49-6.87,0-2.29.18-4.49.18-6.78,0-13.27-1.28-21.33-1.28-25.18,0-12.45,7.23-24.44,20.97-24.44s20.97,11.54,20.97,24.26c0,2.75-.46,5.49-.46,7.97,0,1.1.46,1.46,1.46,1.46h5.31c11.44-.27,6.68-6.96,11.99-6.96,5.95,0,6.23,13.18,6.23,17.3,0,3.85-.09,17.4-6.04,17.4-5.04,0-1.92-6.68-9.43-6.68h-35.8Zm-4.39-24.54c0,3.57,1.1,3.48,2.93,3.48h13.73c1.92,0,4.03.82,4.03-4.12,0-6.04-4.58-8.42-10.16-8.42s-10.53,2.93-10.53,9.06Z"/>
    <path class="cls-1" d="m193.64,144.65c-6.32-2.84-14.37-6.59-21.61-6.59-6.32,0-11.08-2.93-11.08-11.08s8.15-13,14.19-16.57c2.65-1.56,30.67-15.38,38.18-18.68,6.96-3.02,2.75-7.96,7.97-7.96,6.68,0,6.41,13,6.41,17.58,0,13.09-.09,20.97-5.77,20.97-4.39,0-2.75-5.58-5.95-5.58-4.12,0-4.49,2.29-4.49,17.03,0,4.76.18,7.6,4.67,7.6,3.57,0,1.19-5.86,5.95-5.86,5.49,0,5.58,9.89,5.58,13.55,0,13.09-2.47,14.28-5.4,14.28-4.3,0-3.02-4.94-6.32-7.6-2.47-2.01-6.87-3.94-9.8-5.31l-12.54-5.77Zm6.59-19.23c0-.92.18-3.66-1.19-3.66s-6.13,2.66-7.42,3.39c-1.46.82-4.85,2.38-4.85,4.39,0,2.2,5.49,3.75,6.5,4.12,1.01.37,4.58,1.92,5.68,1.92,1.56,0,1.28-2.29,1.28-3.3v-6.87Z"/>
    <path class="cls-1" d="m200.97,58.32c-1.19.55-3.94,1.56-3.94,3.2,0,2.84,12.08,1.92,15.11,1.92,9.8,0,5.22-5.86,10.16-5.86,5.22,0,5.4,9.8,5.4,13.37,0,3.2-.27,11.54-5.04,11.54-5.22,0-.92-5.49-8.42-6.23-7.69-.73-16.21-1.56-29.48-1.56-5.49,0-8.33.37-10.44,1.37-1.92.92-2.56,6.13-6.32,6.13-5.22,0-6.5-8.51-6.5-15.84,0-10.71,1.83-10.53,6.5-13.28,5.4-3.21,20.42-8.88,21.33-12.91.64-2.84-10.44-6.59-16.48-9.89-8.61-4.67-11.35-4.76-11.35-16.85,0-4.03.27-13.18,6.04-13.18,3.66,0,4.39,4.12,7.51,5.04,2.56.73,13.37,1.37,17.49,1.37,1.37,0,11.44-.55,19.96-.92,6.68-.27,5.22-5.77,9.34-5.77,6.13,0,5.86,12.54,5.86,16.57,0,3.75.37,16.3-5.49,16.3-3.2,0-3.75-4.12-6.68-4.76-1.56-.37-17.3-2.2-17.3,1.01,0,2.84,8.06,5.77,12.73,7.97,4.21,2.01,14.65,5.31,14.28,8.24-.18,1.46,0,2.2-12.36,7.69l-11.9,5.31Z"/>
  </g>
</svg>